<svg width="63" height="62" viewBox="0 0 63 62" fill="none" xmlns="http://www.w3.org/2000/svg">
<path d="M62.7041 0H0.965637V61.7385H62.7041V0Z" fill="#F6EDD9"/>
<path d="M50.7477 30.7767C50.6551 20.429 42.2288 12.0491 31.8349 12.0491C21.441 12.0491 13.0379 20.4059 12.9221 30.7767C12.9221 30.7767 12.9221 30.8461 12.9221 30.8692C12.9221 30.8924 12.9221 30.9387 12.9221 30.9618C13.0147 41.3095 21.441 49.6894 31.8349 49.6894C42.2288 49.6894 50.6319 41.3326 50.7477 30.9618C50.7477 30.9618 50.7477 30.8924 50.7477 30.8692C50.7477 30.8461 50.7477 30.7998 50.7477 30.7767ZM31.8349 49.6894C31.8349 39.8974 24.3809 31.8184 14.8203 30.8692C24.3809 29.9201 31.8349 21.8411 31.8349 12.0491C31.8349 21.8411 39.2889 29.9201 48.8494 30.8692C39.2889 31.8184 31.8349 39.8974 31.8349 49.6894Z" fill="#285B4C"/>
</svg>
