<svg width="63" height="62" viewBox="0 0 63 62" fill="none" xmlns="http://www.w3.org/2000/svg">
<path d="M62.2271 0H0.477051V61.7385H62.2156V0H62.2271Z" fill="#F6EDD9"/>
<path d="M20.5934 31.0891C26.67 31.0891 31.5892 26.17 31.5892 20.0933C31.5892 14.0167 26.67 9.09753 20.5934 9.09753C14.5168 9.09753 9.5976 14.0167 9.5976 20.0933C9.5976 26.1584 14.5168 31.0891 20.5934 31.0891Z" fill="#285B4C"/>
<path d="M42.1221 31.0891C48.1987 31.0891 53.1179 26.17 53.1179 20.0933C53.1179 14.0167 48.1987 9.09753 42.1221 9.09753C36.0455 9.09753 31.1263 14.0167 31.1263 20.0933C31.1263 26.1584 36.0455 31.0891 42.1221 31.0891Z" fill="#285B4C"/>
<path d="M20.5934 52.6408C26.67 52.6408 31.5892 47.7216 31.5892 41.645C31.5892 35.5683 26.67 30.6492 20.5934 30.6492C14.5168 30.6492 9.5976 35.5683 9.5976 41.645C9.5976 47.71 14.5168 52.6408 20.5934 52.6408Z" fill="#285B4C"/>
<path d="M42.1222 52.6409C48.1988 52.6409 53.118 47.7217 53.118 41.6451C53.118 35.5685 48.1988 30.6493 42.1222 30.6493C36.0456 30.6493 31.1264 35.5685 31.1264 41.6451C31.1264 47.7101 36.0456 52.6409 42.1222 52.6409Z" fill="#285B4C"/>
<path d="M31.3577 40.2908C36.5662 40.2908 40.7794 36.0777 40.7794 30.8692C40.7794 25.6606 36.5662 21.4475 31.3577 21.4475C26.1492 21.4475 21.936 25.6606 21.936 30.8692C21.936 36.0777 26.1492 40.2908 31.3577 40.2908Z" fill="#F6EDD9"/>
</svg>
