<svg width="63" height="62" viewBox="0 0 63 62" fill="none" xmlns="http://www.w3.org/2000/svg">
<path d="M62.477 0H0.738525V61.7385H62.477V0Z" fill="#285B4C"/>
<path d="M34.2006 36.2398C41.0874 35.1171 45.7751 28.6238 44.6523 21.7369C43.5296 14.8501 37.0363 10.1624 30.1495 11.2851C23.2626 12.4079 18.5749 18.9012 19.6977 25.788C20.8088 32.6749 27.3021 37.351 34.2006 36.2398Z" fill="#F6EDD9"/>
<path d="M43.2171 37.9644C37.1289 37.9644 32.1981 42.8951 32.1981 48.9833V49.1685C31.4805 42.8488 26.1331 37.9644 19.6282 37.9644H10.0677C10.0677 44.9554 15.7392 50.6037 22.707 50.6037H42.1291C48.2173 50.6037 53.148 45.673 53.148 39.5848V37.9644H43.2171Z" fill="#F6EDD9"/>
</svg>
