<svg width="49" height="50" viewBox="0 0 49 50" fill="none" xmlns="http://www.w3.org/2000/svg">
<ellipse cx="25.1503" cy="23.9884" rx="15.7189" ry="20.4346" fill="#D9D9D9"/>
<path d="M24.5 0.410034C38.0313 0.410034 49 11.3787 49 24.91C49 38.4414 38.0313 49.41 24.5 49.41C10.9687 49.41 0 38.4414 0 24.91C0 11.3787 10.9687 0.410034 24.5 0.410034ZM24.5 32.26C23.8502 32.26 23.2271 32.5182 22.7676 32.9776C22.3081 33.4371 22.05 34.0603 22.05 34.71C22.05 35.3598 22.3081 35.983 22.7676 36.4424C23.2271 36.9019 23.8502 37.16 24.5 37.16C25.1498 37.16 25.7729 36.9019 26.2324 36.4424C26.6919 35.983 26.95 35.3598 26.95 34.71C26.95 34.0603 26.6919 33.4371 26.2324 32.9776C25.7729 32.5182 25.1498 32.26 24.5 32.26ZM24.5 10.21C23.8999 10.2101 23.3207 10.4304 22.8723 10.8292C22.4239 11.2279 22.1374 11.7774 22.0672 12.3734L22.05 12.66V27.36C22.0507 27.9845 22.2898 28.5851 22.7185 29.0392C23.1472 29.4933 23.733 29.7665 24.3564 29.8031C24.9798 29.8397 25.5936 29.6369 26.0725 29.2361C26.5513 28.8353 26.8591 28.2668 26.9328 27.6467L26.95 27.36V12.66C26.95 12.0103 26.6919 11.3871 26.2324 10.9276C25.7729 10.4682 25.1498 10.21 24.5 10.21Z" fill="#FF0000"/>
</svg>
