<svg width="32" height="30" viewBox="0 0 32 30" fill="none" xmlns="http://www.w3.org/2000/svg">
<path d="M15.9415 27.5476C15.942 27.9933 15.4031 28.2169 15.0879 27.9017L9.12053 21.9343C9.02676 21.8405 8.89958 21.7878 8.76697 21.7878L3.77265 21.7878C2.8312 21.7878 2.01787 21.4452 1.33266 20.76C0.647455 20.0748 0.304439 19.2611 0.30362 18.3188L0.30362 11.3808C0.303619 10.4393 0.651545 9.62067 1.3474 8.92482C2.04325 8.22897 2.8619 7.88104 3.80334 7.88104H8.73627C8.86888 7.88104 8.99606 7.82836 9.08983 7.7346L15.0599 1.76452C15.3747 1.44972 15.913 1.67233 15.9135 2.11752L15.9415 27.5476ZM19.3198 1.81693C19.3198 0.675499 20.3824 -0.177657 21.4538 0.215975C24.0816 1.18143 26.2969 2.78518 28.0998 5.02723C30.3715 7.85239 31.5074 11.1061 31.5074 14.7884C31.5074 18.4707 30.3715 21.7252 28.0998 24.552C26.2966 26.7957 24.0809 28.3994 21.4526 29.363C20.3814 29.7557 19.3198 28.9025 19.3198 27.7616C19.3198 26.9687 19.849 26.2836 20.5834 25.9845C22.6075 25.1601 24.2841 23.8538 25.6131 22.0654C27.2095 19.9172 28.0077 17.4916 28.0077 14.7884C28.0077 12.0852 27.2095 9.66038 25.6131 7.51388C24.2836 5.72624 22.6064 4.41925 20.5814 3.5929C19.848 3.29363 19.3198 2.60902 19.3198 1.81693ZM19.3198 10.1855C19.3198 8.67359 20.9308 7.75915 21.9828 8.84503C22.3737 9.2485 22.7345 9.68442 23.0651 10.1528C24.0475 11.5445 24.5386 13.0999 24.5386 14.8191C24.5386 16.5383 24.0475 18.0839 23.0651 19.4559C22.7362 19.9152 22.3775 20.3434 21.9891 20.7405C20.9315 21.8216 19.3198 20.9042 19.3198 19.3919C19.3198 18.8621 19.5413 18.3625 19.8696 17.9466C20.1407 17.603 20.377 17.2363 20.5784 16.8465C20.9059 16.2128 21.0696 15.5473 21.0696 14.8498C21.0696 14.113 20.9112 13.4225 20.5944 12.7782C20.3953 12.3734 20.1536 11.9905 19.8692 11.6297C19.5415 11.2138 19.3198 10.7149 19.3198 10.1855Z" fill="#F6EDD9"/>
</svg>
