<svg width="33" height="33" viewBox="0 0 33 33" fill="none" xmlns="http://www.w3.org/2000/svg">
<path d="M32.68 16.4002C32.6 7.46022 25.32 0.220215 16.34 0.220215C7.36001 0.220215 0.1 7.44022 0 16.4002C0 16.4002 0 16.4602 0 16.4802C0 16.5002 0 16.5402 0 16.5602C0.08 25.5002 7.36001 32.7402 16.34 32.7402C25.32 32.7402 32.58 25.5202 32.68 16.5602C32.68 16.5602 32.68 16.5002 32.68 16.4802C32.68 16.4602 32.68 16.4202 32.68 16.4002ZM16.34 32.7402C16.34 24.2802 9.9 17.3002 1.64 16.4802C9.9 15.6602 16.34 8.68021 16.34 0.220215C16.34 8.68021 22.78 15.6602 31.04 16.4802C22.78 17.3002 16.34 24.2802 16.34 32.7402Z" fill="#F6EDD9"/>
</svg>
