<svg width="31" height="32" viewBox="0 0 31 32" fill="none" xmlns="http://www.w3.org/2000/svg">
<path d="M15.319 0.47108L15.2497 0.470891C6.87177 0.448 0.0626448 7.36621 0.0411397 15.9231L0.040962 15.9939C0.0194569 24.5508 6.79372 31.5061 15.1717 31.529L15.2409 31.5292C23.6189 31.5521 30.428 24.6339 30.4495 16.077L30.4497 16.0062C30.4712 7.4493 23.697 0.493971 15.319 0.47108Z" fill="#F6EDD9"/>
<path d="M19.9728 6.8038L10.5631 6.77756C7.96348 6.7703 5.84332 8.92419 5.83678 11.579L5.81514 20.3705C5.8086 23.0253 7.91813 25.191 10.5177 25.1983L19.9275 25.2245C22.5271 25.2318 24.6472 23.0779 24.6538 20.423L24.6754 11.6316C24.6819 8.97674 22.5724 6.81106 19.9728 6.8038ZM7.49989 11.5837C7.50412 9.86564 8.87661 8.47131 10.5589 8.476L19.9686 8.50225C21.6509 8.50694 23.0165 9.90891 23.0123 11.6269L22.9906 20.4184C22.9864 22.1364 21.6139 23.5308 19.9316 23.5261L10.5219 23.4998C8.83963 23.4951 7.47402 22.0932 7.47825 20.3751L7.49989 11.5837Z" fill="#285B4C"/>
<path d="M15.2343 20.4786C17.6517 20.4854 19.6245 18.4823 19.6306 16.0124C19.6367 13.5425 17.6748 11.5285 15.2564 11.5218C12.8379 11.515 10.8661 13.5181 10.8601 15.988C10.854 18.4578 12.8158 20.4719 15.2343 20.4786ZM15.2522 13.2213C16.7533 13.2255 17.9712 14.4758 17.9675 16.0089C17.9637 17.5419 16.7397 18.7854 15.2385 18.7813C13.7373 18.7771 12.5194 17.5268 12.5232 15.9937C12.527 14.4606 13.751 13.2171 15.2522 13.2213Z" fill="#285B4C"/>
<path d="M20.0457 12.2574C20.6967 12.2592 21.2286 11.72 21.2302 11.0541C21.2319 10.3882 20.7037 9.84594 20.0517 9.84412C19.3996 9.8423 18.8688 10.3816 18.8671 11.0475C18.8655 11.7134 19.3937 12.2556 20.0457 12.2574Z" fill="#285B4C"/>
</svg>
