<svg width="150" height="80" viewBox="0 0 150 80" fill="none" xmlns="http://www.w3.org/2000/svg">
<path d="M21.7368 72.6623C21.7368 68.5691 24.866 65.5813 29.0858 65.5813C31.2231 65.5813 33.0864 66.3146 34.3578 67.7373L33.07 68.985C32.0013 67.8577 30.6915 67.3433 29.168 67.3433C26.0388 67.3433 23.7207 69.5979 23.7207 72.6623C23.7207 75.7267 26.0388 77.9813 29.168 77.9813C30.6915 77.9813 32.0013 77.445 33.07 76.3177L34.3578 77.5654C33.0919 78.9882 31.2286 79.7379 29.0694 79.7379C24.8715 79.7379 21.7423 76.75 21.7423 72.6568L21.7368 72.6623Z" fill="#285B4C"/>
<path d="M36.7964 72.6623C36.7964 68.6074 39.9256 65.5813 44.1838 65.5813C48.4419 65.5813 51.5328 68.5855 51.5328 72.6623C51.5328 76.7391 48.4035 79.7433 44.1838 79.7433C39.964 79.7433 36.7964 76.7172 36.7964 72.6623ZM49.5544 72.6623C49.5544 69.5979 47.2582 67.3433 44.1838 67.3433C41.1093 67.3433 38.7748 69.5979 38.7748 72.6623C38.7748 75.7267 41.071 77.9813 44.1838 77.9813C47.2965 77.9813 49.5544 75.7267 49.5544 72.6623Z" fill="#285B4C"/>
<path d="M67.4366 71.8141V79.5846H65.4583V75.7705H57.4571V79.5846H55.5171V71.8141C55.5171 67.7209 57.8955 65.5868 61.4577 65.5868C65.0198 65.5868 67.4421 67.7209 67.4421 71.8141H67.4366ZM65.4583 74.0468V71.6336C65.4583 68.7442 63.9128 67.3434 61.4577 67.3434C59.0025 67.3434 57.4571 68.7497 57.4571 71.6336V74.0468H65.4583Z" fill="#285B4C"/>
<path d="M81.0659 79.5848L78.3915 75.7269H75.4377V79.5848H72.2263V65.7456H78.2271C81.9318 65.7456 84.2499 67.6609 84.2499 70.7691C84.2499 72.843 83.1977 74.3698 81.3947 75.1414L84.5075 79.5902H81.0604L81.0659 79.5848ZM78.0572 68.3504H75.4432V73.1768H78.0572C80.0192 73.1768 81.0111 72.2685 81.0111 70.7636C81.0111 69.2588 80.0192 68.3504 78.0572 68.3504Z" fill="#285B4C"/>
<path d="M91.2427 77.0129H98.789V79.5848H88.0532V65.7456H98.5314V68.3175H91.2427V77.0183V77.0129ZM91.0015 71.3163H97.6765V73.8061H91.0015V71.3163Z" fill="#285B4C"/>
<path d="M101.546 72.6624C101.546 68.4926 104.757 65.5048 109.075 65.5048C111.47 65.5048 113.471 66.3748 114.78 67.9563L112.72 69.8552C111.788 68.7881 110.621 68.2354 109.234 68.2354C106.637 68.2354 104.795 70.0522 104.795 72.6624C104.795 75.2726 106.637 77.0894 109.234 77.0894C110.621 77.0894 111.788 76.5367 112.72 75.4477L114.78 77.3466C113.471 78.9499 111.47 79.82 109.053 79.82C104.757 79.82 101.546 76.8322 101.546 72.6624Z" fill="#285B4C"/>
<path d="M117.186 78.2166L118.277 75.8034C119.444 76.6516 121.187 77.2481 122.853 77.2481C124.755 77.2481 125.527 76.6133 125.527 75.7651C125.527 73.1768 117.466 74.9552 117.466 69.8114C117.466 67.4583 119.367 65.4993 123.308 65.4993C125.05 65.4993 126.832 65.9152 128.119 66.725L127.127 69.1547C125.84 68.4214 124.513 68.0657 123.286 68.0657C121.384 68.0657 120.65 68.7771 120.65 69.6472C120.65 72.1972 128.711 70.4407 128.711 75.5188C128.711 77.8336 126.788 79.8091 122.825 79.8091C120.628 79.8091 118.408 79.1579 117.181 78.2057L117.186 78.2166Z" fill="#285B4C"/>
<path d="M72.3425 0C56.9552 0 44.4829 12.4635 44.4829 27.8349C44.4829 43.2064 56.9553 55.6698 72.3376 55.6698C87.72 55.6698 100.192 43.2064 100.192 27.8349C100.192 12.4635 87.7248 0 72.3425 0ZM72.3425 36.9626C67.2968 36.9626 63.2083 32.877 63.2083 27.8349C63.2083 22.7928 67.2968 18.7072 72.3425 18.7072C77.3881 18.7072 81.4767 22.7928 81.4767 27.8349C81.4767 32.877 77.3881 36.9626 72.3425 36.9626Z" fill="#285B4C"/>
<path d="M76.4935 23.6724C76.6234 23.9319 76.7003 24.2203 76.7003 24.5279C76.7003 25.5998 75.8345 26.465 74.7619 26.465C73.6893 26.465 72.8235 25.5998 72.8235 24.5279C72.8235 23.4561 73.6893 22.5909 74.7619 22.5909C74.8581 22.5909 74.9543 22.6053 75.0457 22.6197C74.2376 22.2016 73.3189 21.9564 72.3425 21.9564C69.0909 21.9564 66.4598 24.5904 66.4598 27.8349C66.4598 31.0793 69.0957 33.7133 72.3425 33.7133C75.5892 33.7133 78.2251 31.0793 78.2251 27.8349C78.2251 26.2054 77.5613 24.7346 76.4935 23.6676V23.6724Z" fill="#285B4C"/>
<path d="M27.8547 0C12.4723 0 0 12.4635 0 27.8349C0 43.2064 12.4723 55.6698 27.8547 55.6698V55.6891H35.0986V0H27.8547Z" fill="#285B4C"/>
<path d="M109.331 0H122.136C137.523 0 150 12.4683 150 27.8445C150 43.2208 137.523 55.6891 122.136 55.6891H109.331C109.331 39.7985 114.064 27.9743 131.053 27.9743C113.713 27.9743 109.331 16.2222 109.331 0Z" fill="#285B4C"/>
</svg>
