<svg width="564" height="252" viewBox="0 0 564 252" fill="none" xmlns="http://www.w3.org/2000/svg">
<path d="M187.899 129.177C187.899 121.947 193.427 116.669 200.882 116.669C204.658 116.669 207.949 117.964 210.195 120.477L207.92 122.681C206.032 120.69 203.719 119.781 201.027 119.781C195.499 119.781 191.404 123.764 191.404 129.177C191.404 134.59 195.499 138.573 201.027 138.573C203.719 138.573 206.032 137.625 207.92 135.634L210.195 137.838C207.959 140.351 204.667 141.675 200.853 141.675C193.437 141.675 187.909 136.398 187.909 129.167L187.899 129.177Z" fill="#F6EDD9"/>
<path d="M214.503 129.177C214.503 122.014 220.031 116.669 227.553 116.669C235.076 116.669 240.536 121.976 240.536 129.177C240.536 136.378 235.008 141.685 227.553 141.685C220.099 141.685 214.503 136.34 214.503 129.177ZM237.041 129.177C237.041 123.764 232.985 119.781 227.553 119.781C222.122 119.781 217.998 123.764 217.998 129.177C217.998 134.59 222.055 138.572 227.553 138.572C233.052 138.572 237.041 134.59 237.041 129.177Z" fill="#F6EDD9"/>
<path d="M268.631 127.679V141.405H265.136V134.667H251.002V141.405H247.574V127.679C247.574 120.449 251.776 116.679 258.069 116.679C264.362 116.679 268.641 120.449 268.641 127.679H268.631ZM265.136 131.623V127.36C265.136 122.256 262.406 119.782 258.069 119.782C253.732 119.782 251.002 122.266 251.002 127.36V131.623H265.136Z" fill="#F6EDD9"/>
<path d="M292.708 141.405L287.984 134.59H282.766V141.405H277.093V116.959H287.693C294.238 116.959 298.333 120.342 298.333 125.833C298.333 129.496 296.474 132.193 293.289 133.556L298.788 141.414H292.699L292.708 141.405ZM287.393 121.56H282.775V130.086H287.393C290.859 130.086 292.612 128.481 292.612 125.823C292.612 123.165 290.859 121.56 287.393 121.56Z" fill="#F6EDD9"/>
<path d="M310.686 136.862H324.017V141.405H305.052V116.959H323.562V121.502H310.686V136.871V136.862ZM310.26 126.799H322.052V131.197H310.26V126.799Z" fill="#F6EDD9"/>
<path d="M328.887 129.177C328.887 121.811 334.56 116.534 342.189 116.534C346.419 116.534 349.953 118.071 352.267 120.864L348.627 124.218C346.981 122.333 344.919 121.357 342.469 121.357C337.881 121.357 334.628 124.566 334.628 129.177C334.628 133.788 337.881 136.997 342.469 136.997C344.919 136.997 346.981 136.021 348.627 134.097L352.267 137.451C349.953 140.283 346.419 141.82 342.15 141.82C334.56 141.82 328.887 136.543 328.887 129.177Z" fill="#F6EDD9"/>
<path d="M356.517 138.988L358.444 134.725C360.506 136.224 363.585 137.277 366.528 137.277C369.887 137.277 371.252 136.156 371.252 134.658C371.252 130.086 357.011 133.227 357.011 124.141C357.011 119.984 360.37 116.524 367.331 116.524C370.41 116.524 373.556 117.259 375.831 118.689L374.079 122.981C371.804 121.686 369.461 121.057 367.292 121.057C363.933 121.057 362.636 122.314 362.636 123.851C362.636 128.355 376.877 125.252 376.877 134.223C376.877 138.312 373.479 141.801 366.479 141.801C362.597 141.801 358.676 140.651 356.508 138.969L356.517 138.988Z" fill="#F6EDD9"/>
<path d="M277.305 0.820312C250.121 0.820312 228.086 22.836 228.086 49.9884C228.086 77.1409 250.121 99.1566 277.296 99.1566C304.472 99.1566 326.506 77.1409 326.506 49.9884C326.506 22.836 304.48 0.820312 277.305 0.820312ZM277.305 66.1118C268.391 66.1118 261.168 58.8949 261.168 49.9884C261.168 41.082 268.391 33.8651 277.305 33.8651C286.219 33.8651 293.442 41.082 293.442 49.9884C293.442 58.8949 286.219 66.1118 277.305 66.1118Z" fill="#F6EDD9"/>
<path d="M281.579 47.5689C283.471 47.5689 285.004 46.037 285.004 44.1472C285.004 42.2575 283.471 40.7256 281.579 40.7256C279.688 40.7256 278.155 42.2575 278.155 44.1472C278.155 46.037 279.688 47.5689 281.579 47.5689Z" fill="#F6EDD9"/>
<path d="M198.71 0.820312C171.534 0.820312 149.5 22.836 149.5 49.9884C149.5 77.1409 171.534 99.1566 198.71 99.1566V99.1905H211.508V0.820312H198.71Z" fill="#F6EDD9"/>
<path d="M342.652 0.820312H365.273C392.457 0.820312 414.5 22.8445 414.5 50.0054C414.5 77.1663 392.457 99.1905 365.273 99.1905H342.652C342.652 71.1211 351.014 50.2347 381.028 50.2347C350.393 50.2347 342.652 29.4755 342.652 0.820312Z" fill="#F6EDD9"/>
<path d="M28.6709 203.18C26.5309 203.18 24.5909 202.72 22.8509 201.8C21.1309 200.86 19.7709 199.57 18.7709 197.93C17.7909 196.27 17.3009 194.4 17.3009 192.32C17.3009 190.24 17.7909 188.38 18.7709 186.74C19.7709 185.08 21.1309 183.79 22.8509 182.87C24.5909 181.93 26.5409 181.46 28.7009 181.46C30.5209 181.46 32.1609 181.78 33.6209 182.42C35.1009 183.06 36.3409 183.98 37.3409 185.18L34.2209 188.06C32.8009 186.42 31.0409 185.6 28.9409 185.6C27.6409 185.6 26.4809 185.89 25.4609 186.47C24.4409 187.03 23.6409 187.82 23.0609 188.84C22.5009 189.86 22.2209 191.02 22.2209 192.32C22.2209 193.62 22.5009 194.78 23.0609 195.8C23.6409 196.82 24.4409 197.62 25.4609 198.2C26.4809 198.76 27.6409 199.04 28.9409 199.04C31.0409 199.04 32.8009 198.21 34.2209 196.55L37.3409 199.43C36.3409 200.65 35.1009 201.58 33.6209 202.22C32.1409 202.86 30.4909 203.18 28.6709 203.18ZM46.0828 203.06C44.2628 203.06 42.8428 202.58 41.8228 201.62C40.8028 200.64 40.2928 199.26 40.2928 197.48V180.56H44.9728V197.21C44.9728 197.89 45.1428 198.42 45.4828 198.8C45.8428 199.16 46.3428 199.34 46.9828 199.34C47.2228 199.34 47.4628 199.31 47.7028 199.25C47.9628 199.19 48.1628 199.12 48.3028 199.04L48.5128 202.67C47.7328 202.93 46.9228 203.06 46.0828 203.06ZM67.0704 186.68V202.82H62.6304V200.9C62.0104 201.6 61.2704 202.14 60.4104 202.52C59.5504 202.88 58.6204 203.06 57.6204 203.06C55.5004 203.06 53.8204 202.45 52.5804 201.23C51.3404 200.01 50.7204 198.2 50.7204 195.8V186.68H55.4004V195.11C55.4004 197.71 56.4904 199.01 58.6704 199.01C59.7904 199.01 60.6904 198.65 61.3704 197.93C62.0504 197.19 62.3904 196.1 62.3904 194.66V186.68H67.0704ZM80.9461 186.44C82.4461 186.44 83.8061 186.79 85.0261 187.49C86.2661 188.17 87.2361 189.14 87.9361 190.4C88.6361 191.64 88.9861 193.09 88.9861 194.75C88.9861 196.41 88.6361 197.87 87.9361 199.13C87.2361 200.37 86.2661 201.34 85.0261 202.04C83.8061 202.72 82.4461 203.06 80.9461 203.06C78.7261 203.06 77.0361 202.36 75.8761 200.96V202.82H71.4061V180.56H76.0861V188.39C77.2661 187.09 78.8861 186.44 80.9461 186.44ZM80.1361 199.22C81.3361 199.22 82.3161 198.82 83.0761 198.02C83.8561 197.2 84.2461 196.11 84.2461 194.75C84.2461 193.39 83.8561 192.31 83.0761 191.51C82.3161 190.69 81.3361 190.28 80.1361 190.28C78.9361 190.28 77.9461 190.69 77.1661 191.51C76.4061 192.31 76.0261 193.39 76.0261 194.75C76.0261 196.11 76.4061 197.2 77.1661 198.02C77.9461 198.82 78.9361 199.22 80.1361 199.22ZM117.055 180.56V202.82H112.585V200.96C111.425 202.36 109.745 203.06 107.545 203.06C106.025 203.06 104.645 202.72 103.405 202.04C102.185 201.36 101.225 200.39 100.525 199.13C99.8251 197.87 99.4751 196.41 99.4751 194.75C99.4751 193.09 99.8251 191.63 100.525 190.37C101.225 189.11 102.185 188.14 103.405 187.46C104.645 186.78 106.025 186.44 107.545 186.44C109.605 186.44 111.215 187.09 112.375 188.39V180.56H117.055ZM108.355 199.22C109.535 199.22 110.515 198.82 111.295 198.02C112.075 197.2 112.465 196.11 112.465 194.75C112.465 193.39 112.075 192.31 111.295 191.51C110.515 190.69 109.535 190.28 108.355 190.28C107.155 190.28 106.165 190.69 105.385 191.51C104.605 192.31 104.215 193.39 104.215 194.75C104.215 196.11 104.605 197.2 105.385 198.02C106.165 198.82 107.155 199.22 108.355 199.22ZM129.517 199.31C130.357 199.31 131.097 199.19 131.737 198.95C132.397 198.69 133.007 198.29 133.567 197.75L136.057 200.45C134.537 202.19 132.317 203.06 129.397 203.06C127.577 203.06 125.967 202.71 124.567 202.01C123.167 201.29 122.087 200.3 121.327 199.04C120.567 197.78 120.187 196.35 120.187 194.75C120.187 193.17 120.557 191.75 121.297 190.49C122.057 189.21 123.087 188.22 124.387 187.52C125.707 186.8 127.187 186.44 128.827 186.44C130.367 186.44 131.767 186.77 133.027 187.43C134.287 188.07 135.287 189.01 136.027 190.25C136.787 191.47 137.167 192.92 137.167 194.6L125.227 196.91C125.567 197.71 126.097 198.31 126.817 198.71C127.557 199.11 128.457 199.31 129.517 199.31ZM128.827 189.98C127.647 189.98 126.687 190.36 125.947 191.12C125.207 191.88 124.817 192.93 124.777 194.27L132.637 192.74C132.417 191.9 131.967 191.23 131.287 190.73C130.607 190.23 129.787 189.98 128.827 189.98ZM159.308 203.18C157.128 203.18 155.158 202.71 153.398 201.77C151.658 200.83 150.288 199.54 149.288 197.9C148.308 196.24 147.818 194.38 147.818 192.32C147.818 190.26 148.308 188.41 149.288 186.77C150.288 185.11 151.658 183.81 153.398 182.87C155.158 181.93 157.128 181.46 159.308 181.46C161.488 181.46 163.448 181.93 165.188 182.87C166.928 183.81 168.298 185.11 169.298 186.77C170.298 188.41 170.798 190.26 170.798 192.32C170.798 194.38 170.298 196.24 169.298 197.9C168.298 199.54 166.928 200.83 165.188 201.77C163.448 202.71 161.488 203.18 159.308 203.18ZM159.308 199.04C160.548 199.04 161.668 198.76 162.668 198.2C163.668 197.62 164.448 196.82 165.008 195.8C165.588 194.78 165.878 193.62 165.878 192.32C165.878 191.02 165.588 189.86 165.008 188.84C164.448 187.82 163.668 187.03 162.668 186.47C161.668 185.89 160.548 185.6 159.308 185.6C158.068 185.6 156.948 185.89 155.948 186.47C154.948 187.03 154.158 187.82 153.578 188.84C153.018 189.86 152.738 191.02 152.738 192.32C152.738 193.62 153.018 194.78 153.578 195.8C154.158 196.82 154.948 197.62 155.948 198.2C156.948 198.76 158.068 199.04 159.308 199.04ZM183.661 186.44C185.161 186.44 186.521 186.79 187.741 187.49C188.981 188.17 189.951 189.14 190.651 190.4C191.351 191.64 191.701 193.09 191.701 194.75C191.701 196.41 191.351 197.87 190.651 199.13C189.951 200.37 188.981 201.34 187.741 202.04C186.521 202.72 185.161 203.06 183.661 203.06C181.441 203.06 179.751 202.36 178.591 200.96V202.82H174.121V180.56H178.801V188.39C179.981 187.09 181.601 186.44 183.661 186.44ZM182.851 199.22C184.051 199.22 185.031 198.82 185.791 198.02C186.571 197.2 186.961 196.11 186.961 194.75C186.961 193.39 186.571 192.31 185.791 191.51C185.031 190.69 184.051 190.28 182.851 190.28C181.651 190.28 180.661 190.69 179.881 191.51C179.121 192.31 178.741 193.39 178.741 194.75C178.741 196.11 179.121 197.2 179.881 198.02C180.661 198.82 181.651 199.22 182.851 199.22ZM200.264 203.06C198.924 203.06 197.614 202.9 196.334 202.58C195.054 202.24 194.034 201.82 193.274 201.32L194.834 197.96C195.554 198.42 196.424 198.8 197.444 199.1C198.464 199.38 199.464 199.52 200.444 199.52C202.424 199.52 203.414 199.03 203.414 198.05C203.414 197.59 203.144 197.26 202.604 197.06C202.064 196.86 201.234 196.69 200.114 196.55C198.794 196.35 197.704 196.12 196.844 195.86C195.984 195.6 195.234 195.14 194.594 194.48C193.974 193.82 193.664 192.88 193.664 191.66C193.664 190.64 193.954 189.74 194.534 188.96C195.134 188.16 195.994 187.54 197.114 187.1C198.254 186.66 199.594 186.44 201.134 186.44C202.274 186.44 203.404 186.57 204.524 186.83C205.664 187.07 206.604 187.41 207.344 187.85L205.784 191.18C204.364 190.38 202.814 189.98 201.134 189.98C200.134 189.98 199.384 190.12 198.884 190.4C198.384 190.68 198.134 191.04 198.134 191.48C198.134 191.98 198.404 192.33 198.944 192.53C199.484 192.73 200.344 192.92 201.524 193.1C202.844 193.32 203.924 193.56 204.764 193.82C205.604 194.06 206.334 194.51 206.954 195.17C207.574 195.83 207.884 196.75 207.884 197.93C207.884 198.93 207.584 199.82 206.984 200.6C206.384 201.38 205.504 201.99 204.344 202.43C203.204 202.85 201.844 203.06 200.264 203.06ZM218.901 199.31C219.741 199.31 220.481 199.19 221.121 198.95C221.781 198.69 222.391 198.29 222.951 197.75L225.441 200.45C223.921 202.19 221.701 203.06 218.781 203.06C216.961 203.06 215.351 202.71 213.951 202.01C212.551 201.29 211.471 200.3 210.711 199.04C209.951 197.78 209.571 196.35 209.571 194.75C209.571 193.17 209.941 191.75 210.681 190.49C211.441 189.21 212.471 188.22 213.771 187.52C215.091 186.8 216.571 186.44 218.211 186.44C219.751 186.44 221.151 186.77 222.411 187.43C223.671 188.07 224.671 189.01 225.411 190.25C226.171 191.47 226.551 192.92 226.551 194.6L214.611 196.91C214.951 197.71 215.481 198.31 216.201 198.71C216.941 199.11 217.841 199.31 218.901 199.31ZM218.211 189.98C217.031 189.98 216.071 190.36 215.331 191.12C214.591 191.88 214.201 192.93 214.161 194.27L222.021 192.74C221.801 191.9 221.351 191.23 220.671 190.73C219.991 190.23 219.171 189.98 218.211 189.98ZM234.167 188.81C234.727 188.03 235.477 187.44 236.417 187.04C237.377 186.64 238.477 186.44 239.717 186.44V190.76C239.197 190.72 238.847 190.7 238.667 190.7C237.327 190.7 236.277 191.08 235.517 191.84C234.757 192.58 234.377 193.7 234.377 195.2V202.82H229.697V186.68H234.167V188.81ZM259.076 186.68L252.266 202.82H247.436L240.656 186.68H245.486L249.956 197.66L254.576 186.68H259.076ZM276.927 186.68V202.82H272.457V200.96C271.297 202.36 269.617 203.06 267.417 203.06C265.897 203.06 264.517 202.72 263.277 202.04C262.057 201.36 261.097 200.39 260.397 199.13C259.697 197.87 259.347 196.41 259.347 194.75C259.347 193.09 259.697 191.63 260.397 190.37C261.097 189.11 262.057 188.14 263.277 187.46C264.517 186.78 265.897 186.44 267.417 186.44C269.477 186.44 271.087 187.09 272.247 188.39V186.68H276.927ZM268.227 199.22C269.407 199.22 270.387 198.82 271.167 198.02C271.947 197.2 272.337 196.11 272.337 194.75C272.337 193.39 271.947 192.31 271.167 191.51C270.387 190.69 269.407 190.28 268.227 190.28C267.027 190.28 266.037 190.69 265.257 191.51C264.477 192.31 264.087 193.39 264.087 194.75C264.087 196.11 264.477 197.2 265.257 198.02C266.037 198.82 267.027 199.22 268.227 199.22ZM297.7 180.56V202.82H293.23V200.96C292.07 202.36 290.39 203.06 288.19 203.06C286.67 203.06 285.29 202.72 284.05 202.04C282.83 201.36 281.87 200.39 281.17 199.13C280.47 197.87 280.12 196.41 280.12 194.75C280.12 193.09 280.47 191.63 281.17 190.37C281.87 189.11 282.83 188.14 284.05 187.46C285.29 186.78 286.67 186.44 288.19 186.44C290.25 186.44 291.86 187.09 293.02 188.39V180.56H297.7ZM289 199.22C290.18 199.22 291.16 198.82 291.94 198.02C292.72 197.2 293.11 196.11 293.11 194.75C293.11 193.39 292.72 192.31 291.94 191.51C291.16 190.69 290.18 190.28 289 190.28C287.8 190.28 286.81 190.69 286.03 191.51C285.25 192.31 284.86 193.39 284.86 194.75C284.86 196.11 285.25 197.2 286.03 198.02C286.81 198.82 287.8 199.22 289 199.22ZM309.711 203.06C308.011 203.06 306.481 202.71 305.121 202.01C303.781 201.29 302.731 200.3 301.971 199.04C301.211 197.78 300.831 196.35 300.831 194.75C300.831 193.15 301.211 191.72 301.971 190.46C302.731 189.2 303.781 188.22 305.121 187.52C306.481 186.8 308.011 186.44 309.711 186.44C311.411 186.44 312.931 186.8 314.271 187.52C315.611 188.22 316.661 189.2 317.421 190.46C318.181 191.72 318.561 193.15 318.561 194.75C318.561 196.35 318.181 197.78 317.421 199.04C316.661 200.3 315.611 201.29 314.271 202.01C312.931 202.71 311.411 203.06 309.711 203.06ZM309.711 199.22C310.911 199.22 311.891 198.82 312.651 198.02C313.431 197.2 313.821 196.11 313.821 194.75C313.821 193.39 313.431 192.31 312.651 191.51C311.891 190.69 310.911 190.28 309.711 190.28C308.511 190.28 307.521 190.69 306.741 191.51C305.961 192.31 305.571 193.39 305.571 194.75C305.571 196.11 305.961 197.2 306.741 198.02C307.521 198.82 308.511 199.22 309.711 199.22ZM326.159 188.81C326.719 188.03 327.469 187.44 328.409 187.04C329.369 186.64 330.469 186.44 331.709 186.44V190.76C331.189 190.72 330.839 190.7 330.659 190.7C329.319 190.7 328.269 191.08 327.509 191.84C326.749 192.58 326.369 193.7 326.369 195.2V202.82H321.689V186.68H326.159V188.81ZM342.476 199.31C343.316 199.31 344.056 199.19 344.696 198.95C345.356 198.69 345.966 198.29 346.526 197.75L349.016 200.45C347.496 202.19 345.276 203.06 342.356 203.06C340.536 203.06 338.926 202.71 337.526 202.01C336.126 201.29 335.046 200.3 334.286 199.04C333.526 197.78 333.146 196.35 333.146 194.75C333.146 193.17 333.516 191.75 334.256 190.49C335.016 189.21 336.046 188.22 337.346 187.52C338.666 186.8 340.146 186.44 341.786 186.44C343.326 186.44 344.726 186.77 345.986 187.43C347.246 188.07 348.246 189.01 348.986 190.25C349.746 191.47 350.126 192.92 350.126 194.6L338.186 196.91C338.526 197.71 339.056 198.31 339.776 198.71C340.516 199.11 341.416 199.31 342.476 199.31ZM341.786 189.98C340.606 189.98 339.646 190.36 338.906 191.12C338.166 191.88 337.776 192.93 337.736 194.27L345.596 192.74C345.376 191.9 344.926 191.23 344.246 190.73C343.566 190.23 342.746 189.98 341.786 189.98ZM358.701 203.06C357.361 203.06 356.051 202.9 354.771 202.58C353.491 202.24 352.471 201.82 351.711 201.32L353.271 197.96C353.991 198.42 354.861 198.8 355.881 199.1C356.901 199.38 357.901 199.52 358.881 199.52C360.861 199.52 361.851 199.03 361.851 198.05C361.851 197.59 361.581 197.26 361.041 197.06C360.501 196.86 359.671 196.69 358.551 196.55C357.231 196.35 356.141 196.12 355.281 195.86C354.421 195.6 353.671 195.14 353.031 194.48C352.411 193.82 352.101 192.88 352.101 191.66C352.101 190.64 352.391 189.74 352.971 188.96C353.571 188.16 354.431 187.54 355.551 187.1C356.691 186.66 358.031 186.44 359.571 186.44C360.711 186.44 361.841 186.57 362.961 186.83C364.101 187.07 365.041 187.41 365.781 187.85L364.221 191.18C362.801 190.38 361.251 189.98 359.571 189.98C358.571 189.98 357.821 190.12 357.321 190.4C356.821 190.68 356.571 191.04 356.571 191.48C356.571 191.98 356.841 192.33 357.381 192.53C357.921 192.73 358.781 192.92 359.961 193.1C361.281 193.32 362.361 193.56 363.201 193.82C364.041 194.06 364.771 194.51 365.391 195.17C366.011 195.83 366.321 196.75 366.321 197.93C366.321 198.93 366.021 199.82 365.421 200.6C364.821 201.38 363.941 201.99 362.781 202.43C361.641 202.85 360.281 203.06 358.701 203.06ZM394.145 180.56V202.82H389.675V200.96C388.515 202.36 386.835 203.06 384.635 203.06C383.115 203.06 381.735 202.72 380.495 202.04C379.275 201.36 378.315 200.39 377.615 199.13C376.915 197.87 376.565 196.41 376.565 194.75C376.565 193.09 376.915 191.63 377.615 190.37C378.315 189.11 379.275 188.14 380.495 187.46C381.735 186.78 383.115 186.44 384.635 186.44C386.695 186.44 388.305 187.09 389.465 188.39V180.56H394.145ZM385.445 199.22C386.625 199.22 387.605 198.82 388.385 198.02C389.165 197.2 389.555 196.11 389.555 194.75C389.555 193.39 389.165 192.31 388.385 191.51C387.605 190.69 386.625 190.28 385.445 190.28C384.245 190.28 383.255 190.69 382.475 191.51C381.695 192.31 381.305 193.39 381.305 194.75C381.305 196.11 381.695 197.2 382.475 198.02C383.255 198.82 384.245 199.22 385.445 199.22ZM406.606 199.31C407.446 199.31 408.186 199.19 408.826 198.95C409.486 198.69 410.096 198.29 410.656 197.75L413.146 200.45C411.626 202.19 409.406 203.06 406.486 203.06C404.666 203.06 403.056 202.71 401.656 202.01C400.256 201.29 399.176 200.3 398.416 199.04C397.656 197.78 397.276 196.35 397.276 194.75C397.276 193.17 397.646 191.75 398.386 190.49C399.146 189.21 400.176 188.22 401.476 187.52C402.796 186.8 404.276 186.44 405.916 186.44C407.456 186.44 408.856 186.77 410.116 187.43C411.376 188.07 412.376 189.01 413.116 190.25C413.876 191.47 414.256 192.92 414.256 194.6L402.316 196.91C402.656 197.71 403.186 198.31 403.906 198.71C404.646 199.11 405.546 199.31 406.606 199.31ZM405.916 189.98C404.736 189.98 403.776 190.36 403.036 191.12C402.296 191.88 401.906 192.93 401.866 194.27L409.726 192.74C409.506 191.9 409.056 191.23 408.376 190.73C407.696 190.23 406.876 189.98 405.916 189.98ZM435.678 181.46C437.618 181.46 439.308 181.84 440.748 182.6C442.188 183.36 443.308 184.48 444.108 185.96C444.908 187.44 445.308 189.23 445.308 191.33V202.82H440.448V197.78H430.848V202.82H426.048V191.33C426.048 189.23 426.448 187.44 427.248 185.96C428.048 184.48 429.168 183.36 430.608 182.6C432.048 181.84 433.738 181.46 435.678 181.46ZM440.448 193.88V190.88C440.448 189.14 440.018 187.83 439.158 186.95C438.298 186.05 437.128 185.6 435.648 185.6C434.148 185.6 432.968 186.05 432.108 186.95C431.268 187.83 430.848 189.14 430.848 190.88V193.88H440.448ZM465.502 186.68L458.692 202.82H453.862L447.082 186.68H451.912L456.382 197.66L461.002 186.68H465.502ZM475.103 199.31C475.943 199.31 476.683 199.19 477.323 198.95C477.983 198.69 478.593 198.29 479.153 197.75L481.643 200.45C480.123 202.19 477.903 203.06 474.983 203.06C473.163 203.06 471.553 202.71 470.153 202.01C468.753 201.29 467.673 200.3 466.913 199.04C466.153 197.78 465.773 196.35 465.773 194.75C465.773 193.17 466.143 191.75 466.883 190.49C467.643 189.21 468.673 188.22 469.973 187.52C471.293 186.8 472.773 186.44 474.413 186.44C475.953 186.44 477.353 186.77 478.613 187.43C479.873 188.07 480.873 189.01 481.613 190.25C482.373 191.47 482.753 192.92 482.753 194.6L470.813 196.91C471.153 197.71 471.683 198.31 472.403 198.71C473.143 199.11 474.043 199.31 475.103 199.31ZM474.413 189.98C473.233 189.98 472.273 190.36 471.533 191.12C470.793 191.88 470.403 192.93 470.363 194.27L478.223 192.74C478.003 191.9 477.553 191.23 476.873 190.73C476.193 190.23 475.373 189.98 474.413 189.98ZM491.328 203.06C489.988 203.06 488.678 202.9 487.398 202.58C486.118 202.24 485.098 201.82 484.338 201.32L485.898 197.96C486.618 198.42 487.488 198.8 488.508 199.1C489.528 199.38 490.528 199.52 491.508 199.52C493.488 199.52 494.478 199.03 494.478 198.05C494.478 197.59 494.208 197.26 493.668 197.06C493.128 196.86 492.298 196.69 491.178 196.55C489.858 196.35 488.768 196.12 487.908 195.86C487.048 195.6 486.298 195.14 485.658 194.48C485.038 193.82 484.728 192.88 484.728 191.66C484.728 190.64 485.018 189.74 485.598 188.96C486.198 188.16 487.058 187.54 488.178 187.1C489.318 186.66 490.658 186.44 492.198 186.44C493.338 186.44 494.468 186.57 495.588 186.83C496.728 187.07 497.668 187.41 498.408 187.85L496.848 191.18C495.428 190.38 493.878 189.98 492.198 189.98C491.198 189.98 490.448 190.12 489.948 190.4C489.448 190.68 489.198 191.04 489.198 191.48C489.198 191.98 489.468 192.33 490.008 192.53C490.548 192.73 491.408 192.92 492.588 193.1C493.908 193.32 494.988 193.56 495.828 193.82C496.668 194.06 497.398 194.51 498.018 195.17C498.638 195.83 498.948 196.75 498.948 197.93C498.948 198.93 498.648 199.82 498.048 200.6C497.448 201.38 496.568 201.99 495.408 202.43C494.268 202.85 492.908 203.06 491.328 203.06ZM526.772 180.56V202.82H522.302V200.96C521.142 202.36 519.462 203.06 517.262 203.06C515.742 203.06 514.362 202.72 513.122 202.04C511.902 201.36 510.942 200.39 510.242 199.13C509.542 197.87 509.192 196.41 509.192 194.75C509.192 193.09 509.542 191.63 510.242 190.37C510.942 189.11 511.902 188.14 513.122 187.46C514.362 186.78 515.742 186.44 517.262 186.44C519.322 186.44 520.932 187.09 522.092 188.39V180.56H526.772ZM518.072 199.22C519.252 199.22 520.232 198.82 521.012 198.02C521.792 197.2 522.182 196.11 522.182 194.75C522.182 193.39 521.792 192.31 521.012 191.51C520.232 190.69 519.252 190.28 518.072 190.28C516.872 190.28 515.882 190.69 515.102 191.51C514.322 192.31 513.932 193.39 513.932 194.75C513.932 196.11 514.322 197.2 515.102 198.02C515.882 198.82 516.872 199.22 518.072 199.22ZM539.233 199.31C540.073 199.31 540.813 199.19 541.453 198.95C542.113 198.69 542.723 198.29 543.283 197.75L545.773 200.45C544.253 202.19 542.033 203.06 539.113 203.06C537.293 203.06 535.683 202.71 534.283 202.01C532.883 201.29 531.803 200.3 531.043 199.04C530.283 197.78 529.903 196.35 529.903 194.75C529.903 193.17 530.273 191.75 531.013 190.49C531.773 189.21 532.803 188.22 534.103 187.52C535.423 186.8 536.903 186.44 538.543 186.44C540.083 186.44 541.483 186.77 542.743 187.43C544.003 188.07 545.003 189.01 545.743 190.25C546.503 191.47 546.883 192.92 546.883 194.6L534.943 196.91C535.283 197.71 535.813 198.31 536.533 198.71C537.273 199.11 538.173 199.31 539.233 199.31ZM538.543 189.98C537.363 189.98 536.403 190.36 535.663 191.12C534.923 191.88 534.533 192.93 534.493 194.27L542.353 192.74C542.133 191.9 541.683 191.23 541.003 190.73C540.323 190.23 539.503 189.98 538.543 189.98ZM8.48027 243.06C6.66027 243.06 5.24027 242.58 4.22027 241.62C3.20027 240.64 2.69027 239.26 2.69027 237.48V220.56H7.37027V237.21C7.37027 237.89 7.54027 238.42 7.88027 238.8C8.24027 239.16 8.74027 239.34 9.38027 239.34C9.62027 239.34 9.86027 239.31 10.1003 239.25C10.3603 239.19 10.5603 239.12 10.7003 239.04L10.9103 242.67C10.1303 242.93 9.32027 243.06 8.48027 243.06ZM29.2949 226.68V242.82H24.8249V240.96C23.6649 242.36 21.9849 243.06 19.7849 243.06C18.2649 243.06 16.8849 242.72 15.6449 242.04C14.4249 241.36 13.4649 240.39 12.7649 239.13C12.0649 237.87 11.7149 236.41 11.7149 234.75C11.7149 233.09 12.0649 231.63 12.7649 230.37C13.4649 229.11 14.4249 228.14 15.6449 227.46C16.8849 226.78 18.2649 226.44 19.7849 226.44C21.8449 226.44 23.4549 227.09 24.6149 228.39V226.68H29.2949ZM20.5949 239.22C21.7749 239.22 22.7549 238.82 23.5349 238.02C24.3149 237.2 24.7049 236.11 24.7049 234.75C24.7049 233.39 24.3149 232.31 23.5349 231.51C22.7549 230.69 21.7749 230.28 20.5949 230.28C19.3949 230.28 18.4049 230.69 17.6249 231.51C16.8449 232.31 16.4549 233.39 16.4549 234.75C16.4549 236.11 16.8449 237.2 17.6249 238.02C18.4049 238.82 19.3949 239.22 20.5949 239.22ZM55.8339 242.82L51.7839 236.97H51.5439H47.3139V242.82H42.4539V221.82H51.5439C53.4039 221.82 55.0139 222.13 56.3739 222.75C57.7539 223.37 58.8139 224.25 59.5539 225.39C60.2939 226.53 60.6639 227.88 60.6639 229.44C60.6639 231 60.2839 232.35 59.5239 233.49C58.7839 234.61 57.7239 235.47 56.3439 236.07L61.0539 242.82H55.8339ZM55.7439 229.44C55.7439 228.26 55.3639 227.36 54.6039 226.74C53.8439 226.1 52.7339 225.78 51.2739 225.78H47.3139V233.1H51.2739C52.7339 233.1 53.8439 232.78 54.6039 232.14C55.3639 231.5 55.7439 230.6 55.7439 229.44ZM72.3144 239.31C73.1544 239.31 73.8944 239.19 74.5344 238.95C75.1944 238.69 75.8044 238.29 76.3644 237.75L78.8544 240.45C77.3344 242.19 75.1144 243.06 72.1944 243.06C70.3744 243.06 68.7644 242.71 67.3644 242.01C65.9644 241.29 64.8844 240.3 64.1244 239.04C63.3644 237.78 62.9844 236.35 62.9844 234.75C62.9844 233.17 63.3544 231.75 64.0944 230.49C64.8544 229.21 65.8844 228.22 67.1844 227.52C68.5044 226.8 69.9844 226.44 71.6244 226.44C73.1644 226.44 74.5644 226.77 75.8244 227.43C77.0844 228.07 78.0844 229.01 78.8244 230.25C79.5844 231.47 79.9644 232.92 79.9644 234.6L68.0244 236.91C68.3644 237.71 68.8944 238.31 69.6144 238.71C70.3544 239.11 71.2544 239.31 72.3144 239.31ZM71.6244 229.98C70.4444 229.98 69.4844 230.36 68.7444 231.12C68.0044 231.88 67.6144 232.93 67.5744 234.27L75.4344 232.74C75.2144 231.9 74.7644 231.23 74.0844 230.73C73.4044 230.23 72.5844 229.98 71.6244 229.98ZM88.5402 243.06C87.2002 243.06 85.8902 242.9 84.6102 242.58C83.3302 242.24 82.3102 241.82 81.5502 241.32L83.1102 237.96C83.8302 238.42 84.7002 238.8 85.7202 239.1C86.7402 239.38 87.7402 239.52 88.7202 239.52C90.7002 239.52 91.6902 239.03 91.6902 238.05C91.6902 237.59 91.4202 237.26 90.8802 237.06C90.3402 236.86 89.5102 236.69 88.3902 236.55C87.0702 236.35 85.9802 236.12 85.1202 235.86C84.2602 235.6 83.5102 235.14 82.8702 234.48C82.2502 233.82 81.9402 232.88 81.9402 231.66C81.9402 230.64 82.2302 229.74 82.8102 228.96C83.4102 228.16 84.2702 227.54 85.3902 227.1C86.5302 226.66 87.8702 226.44 89.4102 226.44C90.5502 226.44 91.6802 226.57 92.8002 226.83C93.9402 227.07 94.8802 227.41 95.6202 227.85L94.0602 231.18C92.6402 230.38 91.0902 229.98 89.4102 229.98C88.4102 229.98 87.6602 230.12 87.1602 230.4C86.6602 230.68 86.4102 231.04 86.4102 231.48C86.4102 231.98 86.6802 232.33 87.2202 232.53C87.7602 232.73 88.6202 232.92 89.8002 233.1C91.1202 233.32 92.2002 233.56 93.0402 233.82C93.8802 234.06 94.6102 234.51 95.2302 235.17C95.8502 235.83 96.1602 236.75 96.1602 237.93C96.1602 238.93 95.8602 239.82 95.2602 240.6C94.6602 241.38 93.7802 241.99 92.6202 242.43C91.4802 242.85 90.1202 243.06 88.5402 243.06ZM107.178 239.31C108.018 239.31 108.758 239.19 109.398 238.95C110.058 238.69 110.668 238.29 111.228 237.75L113.718 240.45C112.198 242.19 109.978 243.06 107.058 243.06C105.238 243.06 103.628 242.71 102.228 242.01C100.828 241.29 99.7477 240.3 98.9877 239.04C98.2277 237.78 97.8477 236.35 97.8477 234.75C97.8477 233.17 98.2177 231.75 98.9577 230.49C99.7177 229.21 100.748 228.22 102.048 227.52C103.368 226.8 104.848 226.44 106.488 226.44C108.028 226.44 109.428 226.77 110.688 227.43C111.948 228.07 112.948 229.01 113.688 230.25C114.448 231.47 114.828 232.92 114.828 234.6L102.888 236.91C103.228 237.71 103.758 238.31 104.478 238.71C105.218 239.11 106.118 239.31 107.178 239.31ZM106.488 229.98C105.308 229.98 104.348 230.36 103.608 231.12C102.868 231.88 102.478 232.93 102.438 234.27L110.298 232.74C110.078 231.9 109.628 231.23 108.948 230.73C108.268 230.23 107.448 229.98 106.488 229.98ZM122.443 228.81C123.003 228.03 123.753 227.44 124.693 227.04C125.653 226.64 126.753 226.44 127.993 226.44V230.76C127.473 230.72 127.123 230.7 126.943 230.7C125.603 230.7 124.553 231.08 123.793 231.84C123.033 232.58 122.653 233.7 122.653 235.2V242.82H117.973V226.68H122.443V228.81ZM147.353 226.68L140.543 242.82H135.713L128.933 226.68H133.763L138.233 237.66L142.853 226.68H147.353ZM165.203 226.68V242.82H160.733V240.96C159.573 242.36 157.893 243.06 155.693 243.06C154.173 243.06 152.793 242.72 151.553 242.04C150.333 241.36 149.373 240.39 148.673 239.13C147.973 237.87 147.623 236.41 147.623 234.75C147.623 233.09 147.973 231.63 148.673 230.37C149.373 229.11 150.333 228.14 151.553 227.46C152.793 226.78 154.173 226.44 155.693 226.44C157.753 226.44 159.363 227.09 160.523 228.39V226.68H165.203ZM156.503 239.22C157.683 239.22 158.663 238.82 159.443 238.02C160.223 237.2 160.613 236.11 160.613 234.75C160.613 233.39 160.223 232.31 159.443 231.51C158.663 230.69 157.683 230.28 156.503 230.28C155.303 230.28 154.313 230.69 153.533 231.51C152.753 232.31 152.363 233.39 152.363 234.75C152.363 236.11 152.753 237.2 153.533 238.02C154.313 238.82 155.303 239.22 156.503 239.22ZM195.522 241.02C194.522 241.7 193.262 242.23 191.742 242.61C190.242 242.99 188.642 243.18 186.942 243.18C184.822 243.18 183.022 242.92 181.542 242.4C180.062 241.86 178.942 241.12 178.182 240.18C177.422 239.22 177.042 238.13 177.042 236.91C177.042 235.79 177.352 234.8 177.972 233.94C178.592 233.08 179.442 232.44 180.522 232.02C179.702 231.58 179.062 230.98 178.602 230.22C178.162 229.46 177.942 228.61 177.942 227.67C177.942 226.53 178.292 225.49 178.992 224.55C179.692 223.61 180.752 222.86 182.172 222.3C183.592 221.74 185.332 221.46 187.392 221.46C188.752 221.46 190.082 221.6 191.382 221.88C192.682 222.14 193.812 222.5 194.772 222.96L193.422 226.68C191.582 225.82 189.632 225.39 187.572 225.39C186.012 225.39 184.832 225.63 184.032 226.11C183.252 226.57 182.862 227.2 182.862 228C182.862 228.74 183.122 229.31 183.642 229.71C184.182 230.09 184.992 230.28 186.072 230.28H191.802V234.12H185.772C184.552 234.12 183.612 234.33 182.952 234.75C182.292 235.17 181.962 235.78 181.962 236.58C181.962 237.42 182.382 238.08 183.222 238.56C184.082 239.02 185.392 239.25 187.152 239.25C188.392 239.25 189.632 239.09 190.872 238.77C192.112 238.43 193.162 237.96 194.022 237.36L195.522 241.02ZM205.637 243.06C203.917 243.06 202.367 242.71 200.987 242.01C199.627 241.29 198.557 240.3 197.777 239.04C197.017 237.78 196.637 236.35 196.637 234.75C196.637 233.15 197.017 231.72 197.777 230.46C198.557 229.2 199.627 228.22 200.987 227.52C202.367 226.8 203.917 226.44 205.637 226.44C207.337 226.44 208.817 226.8 210.077 227.52C211.357 228.22 212.287 229.23 212.867 230.55L209.237 232.5C208.397 231.02 207.187 230.28 205.607 230.28C204.387 230.28 203.377 230.68 202.577 231.48C201.777 232.28 201.377 233.37 201.377 234.75C201.377 236.13 201.777 237.22 202.577 238.02C203.377 238.82 204.387 239.22 205.607 239.22C207.207 239.22 208.417 238.48 209.237 237L212.867 238.98C212.287 240.26 211.357 241.26 210.077 241.98C208.817 242.7 207.337 243.06 205.637 243.06ZM223.036 243.06C221.336 243.06 219.806 242.71 218.446 242.01C217.106 241.29 216.056 240.3 215.296 239.04C214.536 237.78 214.156 236.35 214.156 234.75C214.156 233.15 214.536 231.72 215.296 230.46C216.056 229.2 217.106 228.22 218.446 227.52C219.806 226.8 221.336 226.44 223.036 226.44C224.736 226.44 226.256 226.8 227.596 227.52C228.936 228.22 229.986 229.2 230.746 230.46C231.506 231.72 231.886 233.15 231.886 234.75C231.886 236.35 231.506 237.78 230.746 239.04C229.986 240.3 228.936 241.29 227.596 242.01C226.256 242.71 224.736 243.06 223.036 243.06ZM223.036 239.22C224.236 239.22 225.216 238.82 225.976 238.02C226.756 237.2 227.146 236.11 227.146 234.75C227.146 233.39 226.756 232.31 225.976 231.51C225.216 230.69 224.236 230.28 223.036 230.28C221.836 230.28 220.846 230.69 220.066 231.51C219.286 232.31 218.896 233.39 218.896 234.75C218.896 236.11 219.286 237.2 220.066 238.02C220.846 238.82 221.836 239.22 223.036 239.22ZM240.804 243.06C238.984 243.06 237.564 242.58 236.544 241.62C235.524 240.64 235.014 239.26 235.014 237.48V220.56H239.694V237.21C239.694 237.89 239.864 238.42 240.204 238.8C240.564 239.16 241.064 239.34 241.704 239.34C241.944 239.34 242.184 239.31 242.424 239.25C242.684 239.19 242.884 239.12 243.024 239.04L243.234 242.67C242.454 242.93 241.644 243.06 240.804 243.06ZM252.919 243.06C251.219 243.06 249.689 242.71 248.329 242.01C246.989 241.29 245.939 240.3 245.179 239.04C244.419 237.78 244.039 236.35 244.039 234.75C244.039 233.15 244.419 231.72 245.179 230.46C245.939 229.2 246.989 228.22 248.329 227.52C249.689 226.8 251.219 226.44 252.919 226.44C254.619 226.44 256.139 226.8 257.479 227.52C258.819 228.22 259.869 229.2 260.629 230.46C261.389 231.72 261.769 233.15 261.769 234.75C261.769 236.35 261.389 237.78 260.629 239.04C259.869 240.3 258.819 241.29 257.479 242.01C256.139 242.71 254.619 243.06 252.919 243.06ZM252.919 239.22C254.119 239.22 255.099 238.82 255.859 238.02C256.639 237.2 257.029 236.11 257.029 234.75C257.029 233.39 256.639 232.31 255.859 231.51C255.099 230.69 254.119 230.28 252.919 230.28C251.719 230.28 250.729 230.69 249.949 231.51C249.169 232.31 248.779 233.39 248.779 234.75C248.779 236.11 249.169 237.2 249.949 238.02C250.729 238.82 251.719 239.22 252.919 239.22ZM254.179 220.29H259.219L253.789 224.61H250.129L254.179 220.29ZM281.547 226.68V240.12C281.547 243.08 280.777 245.28 279.237 246.72C277.697 248.16 275.447 248.88 272.487 248.88C270.927 248.88 269.447 248.69 268.047 248.31C266.647 247.93 265.487 247.38 264.567 246.66L266.427 243.3C267.107 243.86 267.967 244.3 269.007 244.62C270.047 244.96 271.087 245.13 272.127 245.13C273.747 245.13 274.937 244.76 275.697 244.02C276.477 243.3 276.867 242.2 276.867 240.72V240.03C275.647 241.37 273.947 242.04 271.767 242.04C270.287 242.04 268.927 241.72 267.687 241.08C266.467 240.42 265.497 239.5 264.777 238.32C264.057 237.14 263.697 235.78 263.697 234.24C263.697 232.7 264.057 231.34 264.777 230.16C265.497 228.98 266.467 228.07 267.687 227.43C268.927 226.77 270.287 226.44 271.767 226.44C274.107 226.44 275.887 227.21 277.107 228.75V226.68H281.547ZM272.697 238.2C273.937 238.2 274.947 237.84 275.727 237.12C276.527 236.38 276.927 235.42 276.927 234.24C276.927 233.06 276.527 232.11 275.727 231.39C274.947 230.65 273.937 230.28 272.697 230.28C271.457 230.28 270.437 230.65 269.637 231.39C268.837 232.11 268.437 233.06 268.437 234.24C268.437 235.42 268.837 236.38 269.637 237.12C270.437 237.84 271.457 238.2 272.697 238.2ZM285.903 226.68H290.583V242.82H285.903V226.68ZM288.243 224.43C287.383 224.43 286.683 224.18 286.143 223.68C285.603 223.18 285.333 222.56 285.333 221.82C285.333 221.08 285.603 220.46 286.143 219.96C286.683 219.46 287.383 219.21 288.243 219.21C289.103 219.21 289.803 219.45 290.343 219.93C290.883 220.41 291.153 221.01 291.153 221.73C291.153 222.51 290.883 223.16 290.343 223.68C289.803 224.18 289.103 224.43 288.243 224.43ZM302.727 243.06C301.007 243.06 299.457 242.71 298.077 242.01C296.717 241.29 295.647 240.3 294.867 239.04C294.107 237.78 293.727 236.35 293.727 234.75C293.727 233.15 294.107 231.72 294.867 230.46C295.647 229.2 296.717 228.22 298.077 227.52C299.457 226.8 301.007 226.44 302.727 226.44C304.427 226.44 305.907 226.8 307.167 227.52C308.447 228.22 309.377 229.23 309.957 230.55L306.327 232.5C305.487 231.02 304.277 230.28 302.697 230.28C301.477 230.28 300.467 230.68 299.667 231.48C298.867 232.28 298.467 233.37 298.467 234.75C298.467 236.13 298.867 237.22 299.667 238.02C300.467 238.82 301.477 239.22 302.697 239.22C304.297 239.22 305.507 238.48 306.327 237L309.957 238.98C309.377 240.26 308.447 241.26 307.167 241.98C305.907 242.7 304.427 243.06 302.727 243.06ZM328.826 226.68V242.82H324.356V240.96C323.196 242.36 321.516 243.06 319.316 243.06C317.796 243.06 316.416 242.72 315.176 242.04C313.956 241.36 312.996 240.39 312.296 239.13C311.596 237.87 311.246 236.41 311.246 234.75C311.246 233.09 311.596 231.63 312.296 230.37C312.996 229.11 313.956 228.14 315.176 227.46C316.416 226.78 317.796 226.44 319.316 226.44C321.376 226.44 322.986 227.09 324.146 228.39V226.68H328.826ZM320.126 239.22C321.306 239.22 322.286 238.82 323.066 238.02C323.846 237.2 324.236 236.11 324.236 234.75C324.236 233.39 323.846 232.31 323.066 231.51C322.286 230.69 321.306 230.28 320.126 230.28C318.926 230.28 317.936 230.69 317.156 231.51C316.376 232.31 315.986 233.39 315.986 234.75C315.986 236.11 316.376 237.2 317.156 238.02C317.936 238.82 318.926 239.22 320.126 239.22ZM352.035 243.18C349.895 243.18 347.955 242.72 346.215 241.8C344.495 240.86 343.135 239.57 342.135 237.93C341.155 236.27 340.665 234.4 340.665 232.32C340.665 230.24 341.155 228.38 342.135 226.74C343.135 225.08 344.495 223.79 346.215 222.87C347.955 221.93 349.905 221.46 352.065 221.46C353.885 221.46 355.525 221.78 356.985 222.42C358.465 223.06 359.705 223.98 360.705 225.18L357.585 228.06C356.165 226.42 354.405 225.6 352.305 225.6C351.005 225.6 349.845 225.89 348.825 226.47C347.805 227.03 347.005 227.82 346.425 228.84C345.865 229.86 345.585 231.02 345.585 232.32C345.585 233.62 345.865 234.78 346.425 235.8C347.005 236.82 347.805 237.62 348.825 238.2C349.845 238.76 351.005 239.04 352.305 239.04C354.405 239.04 356.165 238.21 357.585 236.55L360.705 239.43C359.705 240.65 358.465 241.58 356.985 242.22C355.505 242.86 353.855 243.18 352.035 243.18ZM370.78 243.06C369.08 243.06 367.55 242.71 366.19 242.01C364.85 241.29 363.8 240.3 363.04 239.04C362.28 237.78 361.9 236.35 361.9 234.75C361.9 233.15 362.28 231.72 363.04 230.46C363.8 229.2 364.85 228.22 366.19 227.52C367.55 226.8 369.08 226.44 370.78 226.44C372.48 226.44 374 226.8 375.34 227.52C376.68 228.22 377.73 229.2 378.49 230.46C379.25 231.72 379.63 233.15 379.63 234.75C379.63 236.35 379.25 237.78 378.49 239.04C377.73 240.3 376.68 241.29 375.34 242.01C374 242.71 372.48 243.06 370.78 243.06ZM370.78 239.22C371.98 239.22 372.96 238.82 373.72 238.02C374.5 237.2 374.89 236.11 374.89 234.75C374.89 233.39 374.5 232.31 373.72 231.51C372.96 230.69 371.98 230.28 370.78 230.28C369.58 230.28 368.59 230.69 367.81 231.51C367.03 232.31 366.64 233.39 366.64 234.75C366.64 236.11 367.03 237.2 367.81 238.02C368.59 238.82 369.58 239.22 370.78 239.22ZM388.189 243.06C386.849 243.06 385.539 242.9 384.259 242.58C382.979 242.24 381.959 241.82 381.199 241.32L382.759 237.96C383.479 238.42 384.349 238.8 385.369 239.1C386.389 239.38 387.389 239.52 388.369 239.52C390.349 239.52 391.339 239.03 391.339 238.05C391.339 237.59 391.069 237.26 390.529 237.06C389.989 236.86 389.159 236.69 388.039 236.55C386.719 236.35 385.629 236.12 384.769 235.86C383.909 235.6 383.159 235.14 382.519 234.48C381.899 233.82 381.589 232.88 381.589 231.66C381.589 230.64 381.879 229.74 382.459 228.96C383.059 228.16 383.919 227.54 385.039 227.1C386.179 226.66 387.519 226.44 389.059 226.44C390.199 226.44 391.329 226.57 392.449 226.83C393.589 227.07 394.529 227.41 395.269 227.85L393.709 231.18C392.289 230.38 390.739 229.98 389.059 229.98C388.059 229.98 387.309 230.12 386.809 230.4C386.309 230.68 386.059 231.04 386.059 231.48C386.059 231.98 386.329 232.33 386.869 232.53C387.409 232.73 388.269 232.92 389.449 233.1C390.769 233.32 391.849 233.56 392.689 233.82C393.529 234.06 394.259 234.51 394.879 235.17C395.499 235.83 395.809 236.75 395.809 237.93C395.809 238.93 395.509 239.82 394.909 240.6C394.309 241.38 393.429 241.99 392.269 242.43C391.129 242.85 389.769 243.06 388.189 243.06ZM408.416 242.04C407.956 242.38 407.386 242.64 406.706 242.82C406.046 242.98 405.356 243.06 404.636 243.06C402.696 243.06 401.206 242.57 400.166 241.59C399.126 240.61 398.606 239.17 398.606 237.27V223.11H403.286V227.04H407.276V230.64H403.286V237.21C403.286 237.89 403.456 238.42 403.796 238.8C404.136 239.16 404.626 239.34 405.266 239.34C405.986 239.34 406.626 239.14 407.186 238.74L408.416 242.04ZM426.941 226.68V242.82H422.471V240.96C421.311 242.36 419.631 243.06 417.431 243.06C415.911 243.06 414.531 242.72 413.291 242.04C412.071 241.36 411.111 240.39 410.411 239.13C409.711 237.87 409.361 236.41 409.361 234.75C409.361 233.09 409.711 231.63 410.411 230.37C411.111 229.11 412.071 228.14 413.291 227.46C414.531 226.78 415.911 226.44 417.431 226.44C419.491 226.44 421.101 227.09 422.261 228.39V226.68H426.941ZM418.241 239.22C419.421 239.22 420.401 238.82 421.181 238.02C421.961 237.2 422.351 236.11 422.351 234.75C422.351 233.39 421.961 232.31 421.181 231.51C420.401 230.69 419.421 230.28 418.241 230.28C417.041 230.28 416.051 230.69 415.271 231.51C414.491 232.31 414.101 233.39 414.101 234.75C414.101 236.11 414.491 237.2 415.271 238.02C416.051 238.82 417.041 239.22 418.241 239.22ZM441.084 226.44C443.084 226.44 444.694 227.04 445.914 228.24C447.154 229.44 447.774 231.22 447.774 233.58V242.82H443.094V234.3C443.094 233.02 442.814 232.07 442.254 231.45C441.694 230.81 440.884 230.49 439.824 230.49C438.644 230.49 437.704 230.86 437.004 231.6C436.304 232.32 435.954 233.4 435.954 234.84V242.82H431.274V226.68H435.744V228.57C436.364 227.89 437.134 227.37 438.054 227.01C438.974 226.63 439.984 226.44 441.084 226.44ZM460.322 239.31C461.162 239.31 461.902 239.19 462.542 238.95C463.202 238.69 463.812 238.29 464.372 237.75L466.862 240.45C465.342 242.19 463.122 243.06 460.202 243.06C458.382 243.06 456.772 242.71 455.372 242.01C453.972 241.29 452.892 240.3 452.132 239.04C451.372 237.78 450.992 236.35 450.992 234.75C450.992 233.17 451.362 231.75 452.102 230.49C452.862 229.21 453.892 228.22 455.192 227.52C456.512 226.8 457.992 226.44 459.632 226.44C461.172 226.44 462.572 226.77 463.832 227.43C465.092 228.07 466.092 229.01 466.832 230.25C467.592 231.47 467.972 232.92 467.972 234.6L456.032 236.91C456.372 237.71 456.902 238.31 457.622 238.71C458.362 239.11 459.262 239.31 460.322 239.31ZM459.632 229.98C458.452 229.98 457.492 230.36 456.752 231.12C456.012 231.88 455.622 232.93 455.582 234.27L463.442 232.74C463.222 231.9 462.772 231.23 462.092 230.73C461.412 230.23 460.592 229.98 459.632 229.98ZM475.588 228.81C476.148 228.03 476.898 227.44 477.838 227.04C478.798 226.64 479.898 226.44 481.138 226.44V230.76C480.618 230.72 480.268 230.7 480.088 230.7C478.748 230.7 477.698 231.08 476.938 231.84C476.178 232.58 475.798 233.7 475.798 235.2V242.82H471.118V226.68H475.588V228.81ZM500.154 226.68V242.82H495.684V240.96C494.524 242.36 492.844 243.06 490.644 243.06C489.124 243.06 487.744 242.72 486.504 242.04C485.284 241.36 484.324 240.39 483.624 239.13C482.924 237.87 482.574 236.41 482.574 234.75C482.574 233.09 482.924 231.63 483.624 230.37C484.324 229.11 485.284 228.14 486.504 227.46C487.744 226.78 489.124 226.44 490.644 226.44C492.704 226.44 494.314 227.09 495.474 228.39V226.68H500.154ZM491.454 239.22C492.634 239.22 493.614 238.82 494.394 238.02C495.174 237.2 495.564 236.11 495.564 234.75C495.564 233.39 495.174 232.31 494.394 231.51C493.614 230.69 492.634 230.28 491.454 230.28C490.254 230.28 489.264 230.69 488.484 231.51C487.704 232.31 487.314 233.39 487.314 234.75C487.314 236.11 487.704 237.2 488.484 238.02C489.264 238.82 490.254 239.22 491.454 239.22ZM520.213 243.18C518.553 243.18 516.943 242.96 515.383 242.52C513.843 242.06 512.603 241.47 511.663 240.75L513.313 237.09C514.213 237.75 515.283 238.28 516.523 238.68C517.763 239.08 519.003 239.28 520.243 239.28C521.623 239.28 522.643 239.08 523.303 238.68C523.963 238.26 524.293 237.71 524.293 237.03C524.293 236.53 524.093 236.12 523.693 235.8C523.313 235.46 522.813 235.19 522.193 234.99C521.593 234.79 520.773 234.57 519.733 234.33C518.133 233.95 516.823 233.57 515.803 233.19C514.783 232.81 513.903 232.2 513.163 231.36C512.443 230.52 512.083 229.4 512.083 228C512.083 226.78 512.413 225.68 513.073 224.7C513.733 223.7 514.723 222.91 516.043 222.33C517.383 221.75 519.013 221.46 520.933 221.46C522.273 221.46 523.583 221.62 524.863 221.94C526.143 222.26 527.263 222.72 528.223 223.32L526.723 227.01C524.783 225.91 522.843 225.36 520.903 225.36C519.543 225.36 518.533 225.58 517.873 226.02C517.233 226.46 516.913 227.04 516.913 227.76C516.913 228.48 517.283 229.02 518.023 229.38C518.783 229.72 519.933 230.06 521.473 230.4C523.073 230.78 524.383 231.16 525.403 231.54C526.423 231.92 527.293 232.52 528.013 233.34C528.753 234.16 529.123 235.27 529.123 236.67C529.123 237.87 528.783 238.97 528.103 239.97C527.443 240.95 526.443 241.73 525.103 242.31C523.763 242.89 522.133 243.18 520.213 243.18ZM548.374 226.68V242.82H543.934V240.9C543.314 241.6 542.574 242.14 541.714 242.52C540.854 242.88 539.924 243.06 538.924 243.06C536.804 243.06 535.124 242.45 533.884 241.23C532.644 240.01 532.024 238.2 532.024 235.8V226.68H536.704V235.11C536.704 237.71 537.794 239.01 539.974 239.01C541.094 239.01 541.994 238.65 542.674 237.93C543.354 237.19 543.694 236.1 543.694 234.66V226.68H548.374ZM557.18 228.81C557.74 228.03 558.49 227.44 559.43 227.04C560.39 226.64 561.49 226.44 562.73 226.44V230.76C562.21 230.72 561.86 230.7 561.68 230.7C560.34 230.7 559.29 231.08 558.53 231.84C557.77 232.58 557.39 233.7 557.39 235.2V242.82H552.71V226.68H557.18V228.81Z" fill="#F6EDD9"/>
</svg>
