<svg width="31" height="32" viewBox="0 0 31 32" fill="none" xmlns="http://www.w3.org/2000/svg">
<path d="M30.9381 15.8622C30.9183 23.7053 25.2098 30.1739 17.8125 31.2059C17.1209 31.3019 16.4133 31.3511 15.6953 31.3492C14.8664 31.3469 14.0527 31.2772 13.2604 31.1445C6.02423 29.9343 0.511127 23.508 0.530551 15.7791C0.552106 7.20258 7.37723 0.268112 15.7744 0.291055C24.1716 0.313999 30.9617 7.28567 30.9402 15.8622L30.9381 15.8622Z" fill="#F6EDD9"/>
<path d="M6.718 7.11633L13.707 16.7107L6.63158 24.476L8.22011 24.4804L14.4152 17.6821L19.3899 24.5116L24.7947 24.5267L17.4128 14.3926L23.9989 7.16454L22.4104 7.16011L16.7057 13.4212L12.1239 7.13141L6.71906 7.11634L6.718 7.11633ZM9.05043 8.31752L11.5328 8.32445L22.4601 23.3255L19.9777 23.3186L9.05043 8.31752Z" fill="#285B4C"/>
</svg>
