<svg width="32" height="32" viewBox="0 0 32 32" fill="none" xmlns="http://www.w3.org/2000/svg">
<path d="M31.3414 15.8604C31.3634 7.30784 24.5937 0.35643 16.2209 0.334025C7.84806 0.31162 1.04276 7.22671 1.02081 15.7793C0.998862 24.3319 7.76858 31.2833 16.1414 31.3057C24.5142 31.3281 31.3195 24.413 31.3414 15.8604Z" fill="#F6EDD9"/>
<path d="M25.7367 12.7244C25.6204 11.5478 25.367 10.2467 24.4238 9.56084C23.6933 9.02894 22.7314 9.00677 21.8334 9.00546C19.935 9.00038 18.0355 8.99856 16.1372 8.99457C14.3112 8.99186 12.4853 8.98806 10.6594 8.98535C9.89661 8.98331 9.15531 8.92148 8.44602 9.25692C7.83699 9.54474 7.35939 10.0941 7.07125 10.706C6.67171 11.5569 6.58614 12.5219 6.53578 13.4642C6.44296 15.18 6.44813 16.9004 6.5492 18.6157C6.62375 19.8673 6.81728 21.2509 7.76229 22.0511C8.59993 22.7595 9.78446 22.7975 10.8732 22.8015C14.329 22.814 17.7859 22.8265 21.2428 22.838C21.686 22.8402 22.1484 22.8328 22.6002 22.7839C23.4889 22.6884 24.3365 22.4306 24.9092 21.7596C25.4873 21.0832 25.6378 20.1402 25.7274 19.247C25.946 17.0799 25.9495 14.8916 25.7367 12.7244ZM14.1131 18.9406L14.1287 12.8631L19.2727 15.9151L14.1131 18.9406Z" fill="#285B4C"/>
</svg>
