<svg width="299" height="284" viewBox="0 0 299 284" fill="none" xmlns="http://www.w3.org/2000/svg">
<path d="M0 142.32C0 64.172 63.3517 0.820312 141.5 0.820312H149.5C232.067 0.820312 299 67.7538 299 150.32V278.82C299 281.582 296.761 283.82 294 283.82H141.5C63.3517 283.82 0 220.469 0 142.32Z" fill="#F6EDD9"/>
<path d="M229.126 150.718C228.294 154.018 227.732 157.413 226.587 160.599C221.242 175.496 204.699 185.487 189.12 183.476C176.307 181.822 166.927 175.248 160.756 163.973C160.633 163.748 160.496 163.53 160.314 163.219C153.239 169.559 145.931 169.658 138.473 164.092C137.018 166.187 135.745 168.403 134.113 170.312C124.728 181.289 112.775 185.854 98.6764 182.81C83.9648 179.633 74.6147 170.207 70.8934 155.578C66.3716 137.812 77.3403 118.575 94.9531 113.169C98.1648 112.183 101.263 111.14 104.233 109.465C108.962 106.796 114.2 105.81 119.659 106.115C120.268 106.148 121.018 105.976 121.5 105.623C130.624 98.9416 140.614 99.3809 148.979 106.876C149.127 107.009 149.297 107.12 149.355 107.163C151.343 105.812 153.133 104.264 155.187 103.256C162.864 99.4961 170.198 100.304 177.129 105.291C177.779 105.758 178.698 106.129 179.473 106.095C186.053 105.81 192.063 107.503 197.623 110.984C198.474 111.517 199.462 111.945 200.444 112.144C215.298 115.178 227.036 127.929 228.821 143.016C228.868 143.414 229.022 143.799 229.126 144.189V150.72V150.718ZM192.974 172.981C207.067 172.894 218.54 161.329 218.374 147.379C218.208 133.261 206.895 122.033 192.877 122.068C178.778 122.103 167.37 133.593 167.49 147.631C167.611 161.685 179.054 173.067 192.973 172.981H192.974ZM105.896 172.976C119.489 173.358 131.102 162.099 131.536 148.115C131.963 134.312 120.871 122.494 107.117 122.097C92.6004 121.678 81.0655 132.633 80.6789 147.206C80.3099 161.056 91.5793 172.571 105.898 172.976H105.896ZM155.179 152.483C155.164 149.013 152.429 146.294 148.957 146.296C145.503 146.298 142.715 149.053 142.694 152.481C142.672 155.927 145.591 158.83 149.035 158.787C152.466 158.744 155.197 155.943 155.181 152.483H155.179Z" fill="#285B4C"/>
<path d="M170.969 146.585C171.197 135.339 181.084 125.604 192.342 125.542C194.628 125.528 196.165 126.768 196.358 128.779C196.542 130.678 195.144 132.318 192.848 132.492C189.622 132.736 186.637 133.55 184.04 135.513C180.219 138.398 178.238 142.289 177.937 147.042C177.831 148.713 177.324 150.097 175.635 150.732C173.025 151.712 170.902 149.814 170.967 146.587L170.969 146.585Z" fill="#285B4C"/>
<path d="M83.9609 146.643C84.3729 135.134 94.2034 125.491 105.469 125.542C107.515 125.551 108.858 126.51 109.286 128.269C109.659 129.806 108.889 131.493 107.411 132.125C106.763 132.403 106.016 132.549 105.307 132.574C97.6162 132.857 91.2572 139.291 90.9819 146.995C90.8745 149.99 88.7268 151.593 86.2941 150.751C84.697 150.199 83.8828 148.766 83.959 146.642L83.9609 146.643Z" fill="#285B4C"/>
</svg>
