<svg width="299" height="284" viewBox="0 0 299 284" fill="none" xmlns="http://www.w3.org/2000/svg">
<path d="M0 142.32C0 64.172 63.3517 0.820312 141.5 0.820312H149.5C232.067 0.820312 299 67.7538 299 150.32V278.82C299 281.582 296.761 283.82 294 283.82H141.5C63.3517 283.82 0 220.469 0 142.32Z" fill="#F6EDD9"/>
<path d="M121.528 62.7588H177.469C180.515 63.8848 181.739 66.107 181.517 69.2889C181.417 70.7327 181.5 72.1893 181.5 73.6395C181.5 74.9596 181.5 76.2797 181.5 77.6616C189.002 77.6616 196.249 77.6488 203.498 77.6659C210.269 77.6808 214.487 81.8416 214.49 88.5871C214.505 129.35 214.502 170.111 214.49 210.874C214.49 217.71 210.273 221.875 203.406 221.877C167.461 221.883 131.515 221.883 95.5697 221.877C88.7133 221.877 84.512 217.701 84.5099 210.851C84.4971 170.139 84.4971 129.429 84.5077 88.7172C84.5077 81.8352 88.6728 77.6787 95.5249 77.6638C102.311 77.6488 109.095 77.6595 115.881 77.6595C116.431 77.6595 116.981 77.6595 117.694 77.6595C117.694 74.8402 117.819 72.2021 117.662 69.5811C117.472 66.3971 118.481 64.0362 121.53 62.7588H121.528ZM184.827 189.621V102.586H181.583C180.856 106.352 179.122 107.777 175.339 107.779C161.413 107.783 147.484 107.779 133.558 107.779C130.089 107.779 126.621 107.813 123.153 107.766C120.078 107.725 118.289 106.132 117.732 103.085C117.698 102.897 117.583 102.722 117.512 102.558H114.16V189.621H184.831H184.827ZM181.551 92.2126C183.091 92.2126 184.479 92.2126 185.868 92.2126C187.267 92.2126 188.666 92.1806 190.062 92.2318C193.052 92.3427 195.061 94.3836 195.176 97.3757C195.191 97.7894 195.183 98.2053 195.183 98.619C195.183 130.265 195.183 161.909 195.183 193.555C195.183 198.143 193.366 199.985 188.808 199.985C162.6 199.989 136.395 199.989 110.187 199.985C105.629 199.985 103.814 198.14 103.814 193.553C103.814 161.907 103.814 130.263 103.814 98.6169C103.814 98.1498 103.802 97.6828 103.827 97.2179C103.977 94.3921 105.962 92.3427 108.781 92.2467C111.213 92.1635 113.648 92.2211 116.084 92.2062C116.578 92.2019 117.071 92.1486 117.574 92.1166V88.0348H94.8468V211.538H204.136V88.0241H181.553V92.2126H181.551ZM128.05 73.1021V97.4205H171.157V73.1021H128.05Z" fill="#285B4C"/>
<path d="M135.364 181.161C132.413 181.161 129.463 181.18 126.512 181.156C123.003 181.126 120.935 179.051 120.922 175.515C120.899 169.717 120.901 163.92 120.922 158.122C120.935 154.554 122.899 152.462 126.452 152.421C132.353 152.353 138.254 152.353 144.155 152.421C147.644 152.462 149.631 154.473 149.67 157.981C149.734 163.882 149.74 169.785 149.666 175.684C149.621 179.152 147.518 181.126 144.063 181.156C141.165 181.18 138.265 181.161 135.366 181.161H135.364ZM131.297 162.747V170.817H139.278V162.747H131.297Z" fill="#285B4C"/>
<path d="M120.916 130.263C120.916 127.416 120.903 124.569 120.918 121.721C120.94 118.085 122.968 115.978 126.559 115.955C132.409 115.919 138.259 115.914 144.106 115.957C147.491 115.98 149.602 117.962 149.653 121.333C149.743 127.337 149.743 133.342 149.653 139.346C149.602 142.722 147.512 144.69 144.109 144.718C138.208 144.767 132.307 144.771 126.406 144.716C122.987 144.684 120.952 142.549 120.923 139.113C120.897 136.164 120.916 133.212 120.916 130.261V130.263ZM131.247 134.366H139.282V126.315H131.247V134.366Z" fill="#285B4C"/>
<path d="M167.057 171.889C164.729 171.889 162.398 171.926 160.071 171.881C157.053 171.821 154.872 169.721 154.808 166.886C154.744 164.103 156.915 161.734 159.87 161.672C164.63 161.57 169.395 161.574 174.155 161.668C177.117 161.725 179.309 164.065 179.271 166.842C179.233 169.674 177.049 171.815 174.046 171.881C171.717 171.93 169.388 171.892 167.06 171.892L167.057 171.889Z" fill="#285B4C"/>
<path d="M166.983 135.475C164.705 135.475 162.426 135.505 160.15 135.469C157.075 135.417 154.821 133.242 154.804 130.369C154.787 127.495 157.041 125.258 160.099 125.23C164.705 125.189 169.314 125.191 173.923 125.23C176.989 125.253 179.258 127.454 179.276 130.32C179.293 133.176 177.021 135.413 173.974 135.469C171.645 135.511 169.314 135.477 166.985 135.477L166.983 135.475Z" fill="#285B4C"/>
</svg>
