<svg width="392" height="209" viewBox="0 0 392 209" fill="none" xmlns="http://www.w3.org/2000/svg">
<path d="M217.357 50.0537C182.259 50.7892 154.254 42.3826 151.417 43.486C144.744 46.008 134.394 54.0993 109.91 64.7127C67.1408 83.2598 70.0832 85.0987 61.624 93.7681C58.7342 96.7629 54.2157 101.124 45.5989 103.751C42.7091 104.644 40.7651 104.802 38.2956 105.537C30.2043 108.007 27.8925 112.21 21.2197 123.139C17.2791 129.549 13.4436 131.703 10.7114 134.015C7.50641 136.747 6.08779 136.694 4.51155 139.899C2.93531 143.052 2.25227 147.728 2.14718 150.723C1.20144 183.141 4.66916 185.137 16.7537 195.278C18.5926 196.802 21.4299 199.954 26.3688 198.483C27.6823 198.115 29.7314 199.324 30.7822 201.32C33.5144 206.732 35.0906 206.732 36.7194 206.679C48.6988 206.259 54.5835 206.312 56.4224 206.312C68.8747 206.154 112.274 205.103 214.782 205.051C250.773 205.051 280.564 206.679 317.973 206.679C329.007 206.679 328.639 206.469 333.473 203.107C339.883 198.641 342.247 195.646 343.508 188.658C345.347 178.517 336.888 173.158 330.478 170.636C319.97 166.538 316.607 164.331 306.624 159.602C290.389 151.931 290.389 146.835 277.727 131.072C265.379 115.73 267.323 114.574 251.351 93.9782C245.939 86.9902 244.993 86.2021 232.804 70.8075C217.304 51.2096 219.616 49.896 217.462 49.9486L217.357 50.0537Z" stroke="#878787" stroke-width="0.5" stroke-miterlimit="10"/>
<path d="M217.357 50.0537C182.259 50.7892 154.254 42.3826 151.417 43.486C144.744 46.008 134.394 54.0993 109.91 64.7127C67.1408 83.2598 70.0832 85.0987 61.624 93.7681C58.7342 96.7629 54.2157 101.124 45.5989 103.751C42.7091 104.644 40.7651 104.802 38.2956 105.537C30.2043 108.007 27.8925 112.21 21.2197 123.139C17.2791 129.549 13.4436 131.703 10.7114 134.015C7.50641 136.747 6.08779 136.694 4.51155 139.899C2.93531 143.052 2.25227 147.728 2.14718 150.723C1.20144 183.141 4.66916 185.137 16.7537 195.278C18.5926 196.802 21.4299 199.954 26.3688 198.483C27.6823 198.115 29.7314 199.324 30.7822 201.32C33.5144 206.732 35.0906 206.732 36.7194 206.679C48.6988 206.259 54.5835 206.312 56.4224 206.312C68.8747 206.154 112.274 205.103 214.782 205.051C250.773 205.051 280.564 206.679 317.973 206.679C329.007 206.679 328.639 206.469 333.473 203.107C339.883 198.641 342.247 195.646 343.508 188.658C345.347 178.517 336.888 173.158 330.478 170.636C319.97 166.538 316.607 164.331 306.624 159.602C290.389 151.931 290.389 146.835 277.727 131.072C265.379 115.73 267.323 114.574 251.351 93.9782C245.939 86.9902 244.993 86.2021 232.804 70.8075C217.304 51.2096 219.616 49.896 217.462 49.9486L217.357 50.0537Z" stroke="#878787" stroke-width="0.5" stroke-miterlimit="10"/>
<path d="M213.519 205.155H214.675C250.666 205.155 280.457 206.784 317.866 206.784C328.9 206.784 328.532 206.574 333.366 203.211C339.776 198.745 342.14 195.75 343.401 188.762C345.24 178.622 336.781 173.262 330.371 170.74C319.863 166.642 316.5 164.435 306.465 159.707C290.229 152.036 290.282 146.887 277.567 131.177C265.22 115.835 267.164 114.679 251.191 94.0826C245.779 87.0946 244.834 86.2539 232.644 70.9118C217.092 51.3139 219.404 50.0004 217.302 50.0529H217.249" stroke="#878787" stroke-miterlimit="10"/>
<path d="M212.784 205.158C212.521 197.277 212.626 193.283 212.258 188.239C212.153 186.873 210.787 182.355 212.941 179.833C215.306 177.048 214.413 171.111 214.413 168.064C214.36 152.984 213.73 150.672 214.413 143.054C215.043 136.118 210.262 139.691 210.262 130.602C210.262 130.602 209.579 123.088 209.947 114.839C210.682 98.2361 209.842 90.2498 217.88 50.1607C242.68 33.7153 280.877 1.92776 295.431 1.87522C329.899 1.82268 345.241 6.23615 370.093 4.18703C375.82 3.71416 385.067 10.2818 389.008 14.4851C390.794 16.4292 389.638 18.4257 389.008 26.3595C389.008 26.3595 388.482 33.6102 388.219 48.1642C388.114 53.1556 389.48 57.9894 388.219 66.7113C384.647 91.6684 373.298 106.17 364.156 123.929C362.001 128.08 343.559 129.341 324.224 130.707L301.053 127.659C290.387 128.027 276.096 120.881 267.059 116.783" stroke="#878787" stroke-width="0.5" stroke-miterlimit="10"/>
<path d="M212.784 205.158C212.521 197.277 212.626 193.283 212.258 188.239C212.153 186.873 210.787 182.355 212.941 179.833C215.306 177.048 214.413 171.111 214.413 168.064C214.36 152.984 213.73 150.672 214.413 143.054C215.043 136.118 210.262 139.691 210.262 130.602C210.262 130.602 209.579 123.088 209.947 114.839C210.682 98.2361 209.842 90.2498 217.88 50.1607C242.68 33.7153 280.877 1.92776 295.431 1.87522C329.899 1.82268 345.241 6.23615 370.093 4.18703C375.82 3.71416 385.067 10.2818 389.008 14.4851C390.794 16.4292 389.638 18.4257 389.008 26.3595C389.008 26.3595 388.482 33.6102 388.219 48.1642C388.114 53.1556 389.48 57.9894 388.219 66.7113C384.647 91.6684 373.298 106.17 364.156 123.929C362.001 128.08 343.559 129.341 324.224 130.707L301.053 127.659C290.387 128.027 276.096 120.881 267.059 116.783" stroke="#878787" stroke-miterlimit="10"/>
<path d="M218.669 49.6353C243.468 33.0322 281.088 1.92776 295.432 1.87522C329.952 1.82268 345.241 6.23615 370.093 4.18703C375.82 3.71416 385.067 10.2818 389.008 14.4326C390.847 16.3766 389.639 18.4257 389.061 26.307C389.061 26.307 388.535 33.5577 388.272 48.1116C388.167 53.103 389.533 57.9369 388.272 66.6587C384.7 91.6159 373.351 106.117 364.209 123.876C362.054 128.027 343.612 129.288 324.277 130.654L301.106 127.607C290.44 127.974 276.149 120.829 267.112 116.731" stroke="#878787" stroke-width="0.5" stroke-miterlimit="10"/>
<path d="M268.532 117.832C278.252 121.72 290.442 127.92 301.108 127.605L324.278 130.652C343.613 129.286 362.055 128.025 364.21 123.874C373.352 106.115 384.701 91.6137 388.274 66.6566C389.535 57.9872 388.169 53.1009 388.274 48.1095C388.536 33.5555 389.062 26.3048 389.062 26.3048C389.64 18.3711 390.848 16.3219 389.062 14.4305C385.121 10.2797 375.874 3.71202 370.147 4.13235C345.295 6.18146 329.953 1.76799 295.486 1.82053C281.089 1.82053 243.522 32.9776 218.723 49.5806C218.565 49.5281 217.672 50.0535 217.409 50.0535C182.311 50.7365 154.307 42.3825 151.47 43.4333C144.797 45.9553 134.446 54.0466 109.91 64.66C67.1408 83.2071 70.0832 85.0986 61.624 93.7154C58.7342 96.7102 54.2157 101.071 45.5989 103.698C42.7091 104.591 40.7651 104.749 38.2956 105.485C30.2043 107.954 27.8925 112.157 21.2197 123.086C17.2791 129.496 13.4436 131.65 10.7114 133.962C7.50641 136.694 6.08779 136.642 4.51155 139.847C2.93531 142.999 2.25227 147.675 2.14718 150.723C1.20144 183.141 4.66916 185.137 16.7537 195.278C18.5926 196.802 21.4299 199.954 26.3688 198.483C27.6823 198.115 29.7314 199.324 30.7822 201.32C33.5144 206.732 35.0906 206.732 36.7194 206.679C48.6988 206.259 54.5835 206.364 56.4224 206.311C68.8747 206.154 112.274 205.103 214.782 205.051C250.773 205.051 280.564 206.679 317.973 206.627C329.007 206.627 328.639 206.417 333.473 203.054C339.883 198.588 342.247 195.593 343.508 188.605C345.347 178.465 336.888 173.105 330.478 170.583C319.97 166.485 316.607 164.278 306.572 159.55C290.337 151.879 290.652 146.519 277.727 131.02C268.689 120.144 266.43 115.625 268.689 117.674L268.532 117.832Z" stroke="#295C4C" stroke-width="3" stroke-miterlimit="10"/>
</svg>
