<svg width="392" height="209" viewBox="0 0 392 209" fill="none" xmlns="http://www.w3.org/2000/svg">
<path d="M217.474 49.2491C182.194 49.9885 154.044 41.5383 151.192 42.6474C144.485 45.1825 134.081 53.3158 109.469 63.9842C66.4788 82.6275 69.4364 84.476 60.9333 93.1903C58.0286 96.2007 53.4865 100.584 44.8251 103.225C41.9203 104.123 39.9662 104.281 37.4839 105.021C29.3506 107.503 27.0268 111.728 20.3194 122.713C16.3583 129.157 12.5029 131.322 9.7566 133.646C6.53495 136.392 5.10898 136.339 3.52456 139.561C1.94014 142.73 1.25358 147.43 1.14795 150.441C0.197297 183.027 3.68301 185.034 15.8302 195.227C17.6787 196.758 20.5306 199.927 25.4952 198.449C26.8155 198.079 28.8752 199.294 29.9315 201.3C32.6778 206.74 34.2623 206.74 35.8995 206.687C47.9411 206.265 53.8562 206.318 55.7047 206.318C68.2216 206.159 111.846 205.103 214.886 205.05C251.063 205.05 281.009 206.687 318.612 206.687C329.703 206.687 329.334 206.476 334.193 203.096C340.636 198.607 343.012 195.597 344.28 188.572C346.129 178.379 337.625 172.992 331.182 170.457C320.619 166.338 317.239 164.119 307.152 159.366C290.832 151.655 290.885 146.532 278.104 130.688C265.693 115.267 267.647 114.105 251.592 93.4016C246.152 86.3773 245.201 85.5851 232.948 70.1106C217.368 50.411 219.692 49.0907 217.527 49.1435L217.474 49.2491Z" stroke="#878787" stroke-miterlimit="10"/>
<path d="M213.197 205.158H214.781C250.959 205.158 280.904 206.796 318.508 206.796C329.599 206.796 329.229 206.584 334.088 203.204C340.531 198.715 342.908 195.705 344.175 188.68C346.024 178.487 337.521 173.1 331.077 170.565C320.515 166.446 317.135 164.228 307.047 159.474C290.728 151.763 290.78 146.588 277.999 130.796C265.588 115.375 267.542 114.213 251.487 93.5097C246.047 86.4855 245.096 85.6405 232.844 70.2188C217.263 50.5192 219.587 49.1989 217.422 49.2517C216.894 49.2517 216.366 49.2517 215.785 49.2517" stroke="#878787" stroke-width="0.5" stroke-miterlimit="10"/>
<path d="M213.617 205.158H214.779C250.957 205.158 280.902 206.796 318.506 206.796C329.597 206.796 329.227 206.584 334.086 203.204C340.529 198.715 342.906 195.705 344.173 188.68C346.022 178.487 337.519 173.1 331.075 170.565C320.513 166.446 317.133 164.228 307.045 159.474C290.726 151.763 290.778 146.588 278.05 130.796C265.639 115.375 267.593 114.213 251.538 93.5097C246.098 86.4855 245.147 85.6405 232.894 70.2188C217.314 50.5192 219.638 49.1989 217.473 49.2517H217.42" stroke="#878787" stroke-width="0.5" stroke-miterlimit="10"/>
<path d="M212.878 205.158C212.614 197.236 212.719 193.222 212.35 188.152C212.244 186.778 210.871 182.236 213.036 179.701C215.413 176.902 214.515 170.934 214.515 167.871C214.462 152.713 213.828 150.39 214.515 142.732C215.149 135.76 210.343 139.351 210.343 130.215C210.343 130.215 209.656 122.662 210.026 114.37C210.765 97.6813 209.92 89.6536 218.001 49.3565C242.929 32.8258 281.325 0.873351 295.954 0.820537C330.6 0.767723 346.022 5.20409 371.003 3.14434C376.759 2.66902 386.055 9.27076 390.016 13.4959C391.864 15.45 390.649 17.4569 390.016 25.4318C390.016 25.4318 389.488 32.7202 389.223 47.3496C389.118 52.3669 390.491 57.2258 389.223 65.9929C385.632 91.0795 374.224 105.656 365.035 123.507C362.869 127.68 344.332 128.947 324.896 130.32L301.605 127.257C290.831 127.627 276.519 120.444 267.435 116.325" stroke="#878787" stroke-width="0.5" stroke-miterlimit="10"/>
<path d="M218.793 48.8284C243.721 32.1392 281.536 0.873351 295.954 0.820537C330.6 0.767723 346.022 5.20409 371.003 3.14434C376.759 2.66902 386.055 9.27076 390.016 13.4431C391.864 15.3972 390.65 17.4569 390.069 25.379C390.069 25.379 389.54 32.6673 389.276 47.2968C389.171 52.3141 390.544 57.173 389.276 65.9401C385.685 91.0267 374.277 105.603 365.088 123.454C362.922 127.627 344.385 128.894 324.949 130.267L301.658 127.204C290.884 127.574 276.571 120.391 267.487 116.272" stroke="#878787" stroke-miterlimit="10"/>
<path d="M212.88 205.157C210.715 205.157 214.412 193.485 212.352 188.151C211.824 186.883 210.873 182.235 213.039 179.7C215.415 176.901 214.517 170.933 214.517 167.87C214.465 152.712 213.831 150.389 214.517 142.731C215.151 135.759 210.345 139.35 210.345 130.214C210.345 130.214 209.659 122.661 210.028 114.369C210.768 98.05 210.398 90.2863 217.95 52.2075C218.162 51.3097 219.376 51.0456 219.852 51.8378C221.383 54.4785 224.605 59.7599 232.897 70.2699C245.15 85.7444 246.1 86.5366 251.54 93.5608C267.595 114.264 265.641 115.373 278.053 130.847C290.781 146.639 290.781 151.815 307.1 159.525C317.188 164.279 320.515 166.497 331.131 170.616C337.574 173.099 346.077 178.538 344.228 188.732C342.961 195.703 340.584 198.766 334.141 203.255C329.282 206.635 329.652 206.847 318.561 206.847C280.957 206.847 251.012 205.209 214.834 205.209H212.933L212.88 205.157Z" stroke="#295C4C" stroke-width="3" stroke-miterlimit="10"/>
</svg>
