<svg width="392" height="209" viewBox="0 0 392 209" fill="none" xmlns="http://www.w3.org/2000/svg">
<path d="M217.446 49.2436C182.171 49.9829 154.024 41.5338 151.173 42.6427C144.466 45.1775 134.063 53.3098 109.455 63.9768C66.4703 82.6177 69.4275 84.4659 60.9255 93.1791C57.9683 96.1891 53.4797 100.572 44.8194 103.212C41.915 104.11 39.9611 104.269 37.4792 105.008C29.3469 107.49 27.0234 111.714 20.3169 122.698C16.3564 129.141 12.5014 131.306 9.75547 133.629C6.53424 136.375 5.10844 136.322 3.52423 139.544C1.94002 142.712 1.25354 147.412 1.14793 150.422C0.197401 183.004 3.68266 185.011 15.8283 195.202C17.6765 196.734 20.5281 199.902 25.492 198.424C26.8122 198.054 28.8716 199.269 29.9278 201.275C32.6737 206.714 34.258 206.714 35.895 206.661C47.935 206.239 53.8494 206.292 55.6976 206.292C68.2129 206.133 111.832 205.077 214.858 205.024C251.031 205.024 280.973 206.661 318.571 206.661C329.661 206.661 329.291 206.45 334.149 203.071C340.592 198.582 342.968 195.572 344.236 188.549C346.084 178.357 337.582 172.971 331.139 170.436C320.578 166.317 317.198 164.099 307.112 159.346C290.795 151.637 290.848 146.514 278.068 130.672C265.659 115.252 267.612 114.091 251.559 93.3903C246.12 86.367 245.169 85.5749 232.918 70.1024C217.34 50.4054 219.664 49.0852 217.499 49.138L217.446 49.2436Z" stroke="#878787" stroke-width="0.5" stroke-miterlimit="10"/>
<path d="M217.446 49.2436C182.171 49.9829 154.024 41.5338 151.173 42.6427C144.466 45.1775 134.063 53.3098 109.455 63.9768C66.4703 82.6177 69.4275 84.4659 60.9255 93.1791C57.9683 96.1891 53.4797 100.572 44.8194 103.212C41.915 104.11 39.9611 104.269 37.4792 105.008C29.3469 107.49 27.0234 111.714 20.3169 122.698C16.3564 129.141 12.5014 131.306 9.75547 133.629C6.53424 136.375 5.10844 136.322 3.52423 139.544C1.94002 142.712 1.25354 147.412 1.14793 150.422C0.197401 183.004 3.68266 185.011 15.8283 195.202C17.6765 196.734 20.5281 199.902 25.492 198.424C26.8122 198.054 28.8716 199.269 29.9278 201.275C32.6737 206.714 34.258 206.714 35.895 206.661C47.935 206.239 53.8494 206.292 55.6976 206.292C68.2129 206.133 111.832 205.077 214.858 205.024C251.031 205.024 280.973 206.661 318.571 206.661C329.661 206.661 329.291 206.45 334.149 203.071C340.592 198.582 342.968 195.572 344.236 188.549C346.084 178.357 337.582 172.971 331.139 170.436C320.578 166.317 317.198 164.099 307.112 159.346C290.795 151.637 290.848 146.514 278.068 130.672C265.659 115.252 267.612 114.091 251.559 93.3903C246.12 86.367 245.169 85.5749 232.918 70.1024C217.34 50.4054 219.664 49.0852 217.499 49.138L217.446 49.2436Z" stroke="#878787" stroke-miterlimit="10"/>
<path d="M213.644 205.129H214.806C250.979 205.129 280.92 206.766 318.519 206.766C329.608 206.766 329.239 206.555 334.097 203.175C340.539 198.687 342.916 195.677 344.183 188.654C346.031 178.462 337.529 173.075 331.087 170.541C320.526 166.422 317.146 164.204 307.06 159.451C290.742 151.741 290.795 146.566 278.069 130.777C265.659 115.357 267.613 114.196 251.56 93.4952C246.12 86.4718 245.17 85.6269 232.919 70.2073C217.341 50.5102 219.664 49.1901 217.499 49.2429" stroke="#878787" stroke-miterlimit="10"/>
<path d="M212.904 205.131C212.64 197.21 212.745 193.197 212.376 188.127C212.27 186.754 210.897 182.213 213.062 179.678C215.438 176.879 214.541 170.912 214.541 167.849C214.488 152.694 213.854 150.37 214.541 142.713C215.174 135.743 210.369 139.333 210.369 130.198C210.369 130.198 209.683 122.646 210.052 114.356C210.791 97.6687 209.947 89.642 218.026 49.3502C242.951 32.8216 281.342 0.873344 295.969 0.820537C330.611 0.76773 346.03 5.20352 371.008 3.14404C376.764 2.66878 386.058 9.26966 390.019 13.4942C391.867 15.4481 390.652 17.4548 390.019 25.4286C390.019 25.4286 389.491 32.716 389.279 47.3436C389.174 52.3602 390.547 57.2185 389.279 65.9844C385.689 91.0678 374.282 105.643 365.094 123.491C362.929 127.663 344.393 128.93 324.96 130.303L301.672 127.241C290.9 127.61 276.589 120.429 267.506 116.31" stroke="#878787" stroke-width="0.5" stroke-miterlimit="10"/>
<path d="M212.904 205.131C212.64 197.21 212.745 193.197 212.376 188.127C212.27 186.754 210.897 182.213 213.062 179.678C215.438 176.879 214.541 170.912 214.541 167.849C214.488 152.694 213.854 150.37 214.541 142.713C215.174 135.743 210.369 139.333 210.369 130.198C210.369 130.198 209.683 122.646 210.052 114.356C210.791 97.6687 209.947 89.642 218.026 49.3502C242.951 32.8216 281.342 0.873344 295.969 0.820537C330.611 0.76773 346.03 5.20352 371.008 3.14404C376.764 2.66878 386.058 9.26966 390.019 13.4942C391.867 15.4481 390.652 17.4548 390.019 25.4286C390.019 25.4286 389.491 32.716 389.279 47.3436C389.174 52.3602 390.547 57.2185 389.279 65.9844C385.689 91.0678 374.282 105.643 365.094 123.491C362.929 127.663 344.393 128.93 324.96 130.303L301.672 127.241C290.9 127.61 276.589 120.429 267.506 116.31" stroke="#878787" stroke-miterlimit="10"/>
<path d="M218.767 48.8222C243.692 32.1351 281.502 0.873344 295.918 0.820537C330.56 0.767729 345.979 5.20352 370.957 3.14404C376.713 2.66878 386.007 9.26966 389.968 13.4414C391.816 15.3953 390.601 17.4548 390.02 25.3758C390.02 25.3758 389.492 32.6632 389.228 47.2908C389.123 52.3074 390.496 57.1657 389.228 65.9317C385.637 91.015 374.231 105.59 365.043 123.439C362.878 127.61 344.342 128.878 324.909 130.251L301.621 127.188C290.849 127.557 276.538 120.376 267.455 116.257" stroke="#878787" stroke-miterlimit="10"/>
<path d="M37.0576 206.715C48.2527 206.346 53.8503 206.398 55.6457 206.398C68.161 206.24 111.78 205.184 214.806 205.131C250.979 205.131 280.921 206.768 318.519 206.768C323.008 206.768 325.595 206.768 327.444 206.451" stroke="#295C4C" stroke-width="3" stroke-miterlimit="10" stroke-linecap="round"/>
</svg>
