<svg width="391" height="208" viewBox="0 0 391 208" fill="none" xmlns="http://www.w3.org/2000/svg">
<path d="M217.35 48.999C182.253 49.7345 154.25 41.3282 151.413 42.4315C144.74 44.9534 134.39 53.0445 109.907 63.6574C67.1398 82.2038 70.082 84.0427 61.6231 92.7116C58.7335 95.7064 54.2151 100.067 45.5987 102.694C42.709 103.587 40.7651 103.745 38.2957 104.48C30.2047 106.95 27.8929 111.153 21.2204 122.081C17.28 128.491 13.4446 130.645 10.7126 132.957C7.50768 135.689 6.08912 135.636 4.51294 138.841C2.93676 141.994 2.25375 146.67 2.14867 149.664C1.20296 182.081 4.61801 184.077 16.7546 194.218C18.5935 195.741 21.4306 198.894 26.3693 197.422C27.6828 197.055 29.7318 198.263 30.7826 200.26C33.5146 205.671 35.0908 205.671 36.7195 205.619C48.6985 205.198 54.5829 205.251 56.4218 205.251C68.8736 205.093 112.271 204.042 214.775 203.99C250.765 203.99 280.554 205.619 317.962 205.619C328.996 205.619 328.628 205.408 333.461 202.046C339.871 197.58 342.236 194.585 343.496 187.598C345.335 177.458 336.876 172.099 330.467 169.577C319.959 165.479 316.596 163.272 306.561 158.543C290.327 150.873 290.379 145.776 277.665 130.015C265.318 114.673 267.262 113.517 251.29 92.9218C245.878 85.9341 244.933 85.146 232.744 69.752C217.245 50.1548 219.556 48.8413 217.402 48.8939L217.35 48.999Z" stroke="#878787" stroke-width="0.5" stroke-miterlimit="10"/>
<path d="M217.35 48.999C182.253 49.7345 154.25 41.3282 151.413 42.4315C144.74 44.9534 134.39 53.0445 109.907 63.6574C67.1398 82.2038 70.082 84.0427 61.6231 92.7116C58.7335 95.7064 54.2151 100.067 45.5987 102.694C42.709 103.587 40.7651 103.745 38.2957 104.48C30.2047 106.95 27.8929 111.153 21.2204 122.081C17.28 128.491 13.4446 130.645 10.7126 132.957C7.50768 135.689 6.08912 135.636 4.51294 138.841C2.93676 141.994 2.25375 146.67 2.14867 149.664C1.20296 182.081 4.61801 184.077 16.7546 194.218C18.5935 195.741 21.4306 198.894 26.3693 197.422C27.6828 197.055 29.7318 198.263 30.7826 200.26C33.5146 205.671 35.0908 205.671 36.7195 205.619C48.6985 205.198 54.5829 205.251 56.4218 205.251C68.8736 205.093 112.271 204.042 214.775 203.99C250.765 203.99 280.554 205.619 317.962 205.619C328.996 205.619 328.628 205.408 333.461 202.046C339.871 197.58 342.236 194.585 343.496 187.598C345.335 177.458 336.876 172.099 330.467 169.577C319.959 165.479 316.596 163.272 306.561 158.543C290.327 150.873 290.379 145.776 277.665 130.015C265.318 114.673 267.262 113.517 251.29 92.9218C245.878 85.9341 244.933 85.146 232.744 69.752C217.245 50.1548 219.556 48.8413 217.402 48.8939L217.35 48.999Z" stroke="#878787" stroke-miterlimit="10"/>
<path d="M213.565 204.096H214.721C250.711 204.096 280.5 205.725 317.908 205.725C328.942 205.725 328.574 205.515 333.408 202.152C339.817 197.686 342.182 194.692 343.443 187.704C345.281 177.564 336.823 172.205 330.413 169.683C319.905 165.585 316.542 163.378 306.507 158.65C290.273 150.979 290.325 145.83 277.663 130.121C265.317 114.779 267.261 113.624 251.289 93.0281C245.877 86.0404 244.931 85.1998 232.742 69.8583C217.243 50.2611 219.555 48.9477 217.401 49.0002" stroke="#878787" stroke-miterlimit="10"/>
<path d="M212.83 204.095C212.567 196.214 212.672 192.221 212.304 187.177C212.199 185.811 210.833 181.293 212.987 178.771C215.352 175.987 214.458 170.05 214.458 167.002C214.406 151.924 213.775 149.612 214.458 141.994C215.089 135.058 210.308 138.631 210.308 129.542C210.308 129.542 209.625 122.029 209.993 113.78C210.728 97.1776 209.887 89.1916 217.926 49.1041C242.725 32.6593 280.921 0.873073 295.474 0.820534C329.94 0.767995 345.281 5.18129 370.132 3.13226C375.859 2.6594 385.106 9.22682 389.046 13.43C390.833 15.3739 389.677 17.3704 389.046 25.3038C389.046 25.3038 388.521 32.5543 388.258 47.1077C388.153 52.0989 389.519 56.9325 388.258 65.654C384.686 90.6102 373.337 105.111 364.195 122.869C362.041 127.02 343.6 128.281 324.265 129.647L301.096 126.6C290.43 126.967 276.14 119.822 267.103 115.724" stroke="#878787" stroke-width="0.5" stroke-miterlimit="10"/>
<path d="M212.83 204.095C212.567 196.214 212.672 192.221 212.304 187.177C212.199 185.811 210.833 181.293 212.987 178.771C215.352 175.987 214.458 170.05 214.458 167.002C214.406 151.924 213.775 149.612 214.458 141.994C215.089 135.058 210.308 138.631 210.308 129.542C210.308 129.542 209.625 122.029 209.993 113.78C210.728 97.1776 209.887 89.1916 217.926 49.1041C242.725 32.6593 280.921 0.873073 295.474 0.820534C329.94 0.767995 345.281 5.18129 370.132 3.13226C375.859 2.6594 385.106 9.22682 389.046 13.43C390.833 15.3739 389.677 17.3704 389.046 25.3038C389.046 25.3038 388.521 32.5543 388.258 47.1077C388.153 52.0989 389.519 56.9325 388.258 65.654C384.686 90.6102 373.337 105.111 364.195 122.869C362.041 127.02 343.6 128.281 324.265 129.647L301.096 126.6C290.43 126.967 276.14 119.822 267.103 115.724" stroke="#878787" stroke-width="0.5" stroke-miterlimit="10"/>
<path d="M218.663 48.5787C243.461 31.9763 281.079 0.873073 295.423 0.820534C329.941 0.767995 345.23 5.18129 370.081 3.13226C375.808 2.6594 385.055 9.22682 388.995 13.3774C390.834 15.3214 389.625 17.3704 389.048 25.2513C389.048 25.2513 388.522 32.5017 388.259 47.0551C388.154 52.0463 389.52 56.88 388.259 65.6015C384.687 90.5577 373.338 105.058 364.196 122.817C362.042 126.967 343.601 128.228 324.267 129.594L301.097 126.547C290.431 126.915 276.141 119.769 267.104 115.671" stroke="#878787" stroke-miterlimit="10"/>
<path d="M328.156 205.144C326.265 205.67 323.585 205.722 317.911 205.722C280.503 205.722 250.713 204.094 214.724 204.094H212.832C212.57 196.213 212.675 192.22 212.307 187.176C212.202 185.81 210.836 181.292 212.99 178.77C215.354 175.985 214.461 170.048 214.461 167.001C214.409 151.922 213.778 149.61 214.461 141.992C215.092 135.057 210.311 138.63 210.311 129.54C210.311 129.54 209.628 122.027 209.995 113.779C210.731 97.1762 209.89 89.1903 217.929 49.1028C217.929 49.1028 217.754 49.0853 217.403 49.0502C182.307 49.7858 154.304 41.3795 151.467 42.4828C144.794 45.0047 134.444 53.0958 109.96 63.7087C67.1935 82.2551 70.1357 84.1465 61.6769 92.7629C58.7872 95.7051 54.2688 100.118 45.6524 102.745C42.7627 103.639 40.8188 103.796 38.3494 104.532C30.2584 107.001 27.9466 111.204 21.2742 122.132C17.3337 128.542 13.4983 130.696 10.7663 133.008C7.56139 135.74 6.14283 135.688 4.56665 138.892C2.99047 142.045 2.30746 146.721 2.20238 149.716C1.25667 182.132 4.67174 184.129 16.8083 194.269C18.6472 195.792 21.4843 198.945 26.423 197.474C27.7365 197.106 29.7855 198.314 30.8363 200.311C32.6226 203.831 33.8836 205.092 35.0394 205.512" stroke="#295C4C" stroke-width="3" stroke-miterlimit="10" stroke-linecap="round"/>
</svg>
