<svg width="307" height="284" viewBox="0 0 307 284" fill="none" xmlns="http://www.w3.org/2000/svg">
<path d="M0.333496 142.32C0.333496 64.172 63.6852 0.820312 141.833 0.820312H156.334C239.176 0.820312 306.333 67.9776 306.333 150.82V278.82C306.333 281.582 304.095 283.82 301.333 283.82H141.833C63.6852 283.82 0.333496 220.469 0.333496 142.32Z" fill="#F6EDD9"/>
<path d="M230.112 156.103C229.222 160.988 226.069 164.371 222.689 167.716C210.969 179.317 199.327 190.996 187.692 202.686C181.714 208.693 174.605 211.729 166.069 211.659C152.726 211.552 139.381 211.608 126.037 211.673C124.92 211.678 123.69 212.073 122.712 212.635C119.553 214.451 116.497 216.444 113.385 218.338C111.747 219.336 110.056 219.369 108.443 218.291C106.881 217.247 106.098 215.675 106.596 213.896C106.918 212.744 107.678 211.432 108.638 210.788C112.493 208.205 116.468 205.792 120.482 203.463C121.456 202.898 122.754 202.672 123.904 202.668C138.099 202.615 152.293 202.594 166.485 202.654C172.094 202.678 176.852 200.759 180.782 196.842C193.598 184.073 206.379 171.271 219.148 158.455C219.8 157.801 220.362 156.964 220.702 156.109C221.5 154.092 221.235 152.169 219.673 150.564C218.265 149.115 215.959 148.695 213.976 149.628C213.093 150.042 212.275 150.681 211.568 151.364C203.083 159.555 194.619 167.766 186.177 176.002C185.71 176.457 185.343 177.124 185.173 177.759C183.356 184.581 177.424 189.3 170.364 189.335C160.268 189.386 150.172 189.358 140.078 189.341C137.349 189.337 135.441 187.746 135.111 185.307C134.84 183.296 136.181 181.205 138.237 180.582C138.889 180.385 139.614 180.362 140.303 180.362C150.198 180.348 160.095 180.362 169.989 180.348C173.467 180.342 176.042 178.2 176.54 174.977C177.005 171.96 174.898 169.315 171.838 169.307C157.545 169.274 143.251 169.219 128.957 169.352C124.391 169.395 120.322 171.371 116.657 173.995C114.513 175.529 112.473 177.251 110.599 179.104C101.93 187.679 93.3295 196.323 84.7193 204.958C83.5264 206.155 82.187 206.946 80.4572 206.68C78.7566 206.419 77.5129 205.478 76.8823 203.843C76.2282 202.145 76.5738 200.587 77.7375 199.236C78.4521 198.404 79.2721 197.664 80.0491 196.885C88.14 188.792 96.2269 180.693 104.326 172.608C109.712 167.232 115.798 162.954 123.323 161.169C125.586 160.632 127.96 160.343 130.285 160.33C143.378 160.252 156.473 160.293 169.568 160.293C176.399 160.293 178.689 161.281 183.301 166.251C183.77 165.812 184.244 165.379 184.705 164.932C191.581 158.239 198.46 151.552 205.326 144.851C209.114 141.155 213.595 139.425 218.847 140.46C224.782 141.629 228.379 145.362 229.808 151.216C229.89 151.552 230.009 151.878 230.108 152.208V156.107L230.112 156.103Z" fill="#285B4C"/>
<path d="M154.538 65.5474C159.075 69.4229 163.806 73.0993 168.107 77.2248C174.259 83.127 179.681 89.7066 183.174 97.573C188.282 109.075 187.962 120.235 179.894 130.405C174.716 136.932 167.699 140.554 159.542 142.022C159.007 142.117 158.474 142.221 157.838 142.34C157.838 143.785 157.859 145.177 157.834 146.569C157.783 149.213 155.836 151.222 153.349 151.227C150.871 151.233 148.905 149.218 148.849 146.579C148.819 145.187 148.843 143.793 148.843 142.664C145.489 141.62 142.189 140.917 139.161 139.591C129.531 135.378 122.936 128.363 120.826 117.849C119.111 109.309 121.011 101.314 125.396 93.8419C130.777 84.6733 138.034 77.1545 146 70.2605C147.947 68.5756 150.087 67.1132 152.138 65.5474C152.939 65.5474 153.738 65.5474 154.538 65.5474ZM148.841 115.158C148.841 112.974 148.776 111.088 148.862 109.209C148.921 107.94 148.593 106.927 147.771 105.939C146.207 104.059 144.751 102.087 143.276 100.133C141.537 97.8248 141.798 95.0524 143.872 93.4807C145.967 91.8953 148.626 92.3854 150.438 94.699C151.381 95.9017 152.316 97.1083 153.351 98.4379C154.411 97.0653 155.344 95.8431 156.295 94.6346C158.052 92.3971 160.682 91.9148 162.754 93.4377C164.857 94.9821 165.169 97.7838 163.447 100.076C161.828 102.233 160.155 104.35 158.521 106.496C158.255 106.845 157.886 107.249 157.877 107.636C157.818 110.053 157.847 112.474 157.847 115.055C158.917 114.036 159.815 113.192 160.698 112.333C161.762 111.297 163.021 110.767 164.503 110.967C166.278 111.207 167.586 112.15 168.174 113.87C168.769 115.615 168.445 117.238 167.153 118.589C164.322 121.551 161.459 124.481 158.636 127.453C158.285 127.824 157.91 128.339 157.875 128.814C157.773 130.198 157.84 131.596 157.84 133.197C159.103 132.898 160.223 132.691 161.307 132.365C172.93 128.874 179.256 118.741 177.005 107.148C176.212 103.069 174.308 99.4395 172.055 95.9954C167.17 88.5235 160.911 82.3031 154.202 76.4926C153.505 75.8893 153.062 75.9694 152.443 76.5454C150.36 78.4861 148.179 80.3253 146.147 82.3167C140.557 87.7913 135.482 93.6662 131.919 100.724C129.568 105.385 128.706 110.303 129.52 115.408C130.691 122.761 135.166 127.713 141.693 130.873C143.882 131.934 146.295 132.533 148.839 133.425C148.839 132.082 148.755 131.227 148.856 130.395C149.042 128.88 148.511 127.783 147.418 126.713C144.706 124.058 142.085 121.305 139.493 118.53C137.741 116.656 137.831 113.872 139.571 112.185C141.336 110.477 144.042 110.508 145.918 112.281C146.824 113.138 147.697 114.03 148.837 115.153L148.841 115.158Z" fill="#285B4C"/>
</svg>
