<svg width="12" height="22" viewBox="0 0 12 22" fill="none" xmlns="http://www.w3.org/2000/svg">
<path d="M6.7938 4.75928C6.54566 4.88335 6.29752 4.94539 6.01837 4.94539C5.73921 4.94539 5.46005 4.91437 5.21191 4.82132C4.96377 4.72826 4.74665 4.57318 4.52953 4.38707C4.31241 4.20097 4.15732 3.98384 4.06427 3.7357C3.9402 3.48756 3.90918 3.20841 3.90918 2.92926C3.90918 2.6501 3.9402 2.40196 4.06427 2.15382C4.15732 1.90568 4.31241 1.68855 4.49851 1.47143C4.68462 1.25431 4.90174 1.09922 5.14988 1.00617C5.39802 0.882102 5.64616 0.851086 5.92531 0.820068H5.98735C6.26651 0.820068 6.51465 0.882101 6.73177 0.975153C6.94889 1.06821 7.16601 1.22329 7.35212 1.4094C7.53822 1.5955 7.69331 1.81263 7.81738 2.06077C7.91043 2.3089 7.97247 2.55704 7.97247 2.8362C7.97247 3.11536 7.97247 3.39452 7.8484 3.61164C7.75534 3.85978 7.63127 4.0769 7.41415 4.29402C7.22805 4.51114 7.01092 4.66623 6.76278 4.75928" fill="#285B4C"/>
<path d="M9.02608 8.91618L11.1663 10.0948C11.4454 10.281 11.6005 10.4981 11.6626 10.7462C11.7246 10.9633 11.7246 11.1805 11.6626 11.3976C11.6005 11.5837 11.4765 11.7698 11.3524 11.9249C11.1663 12.111 10.8871 12.2351 10.577 12.2351C10.5149 12.2351 10.4529 12.2351 10.3598 12.2351C10.2978 12.2351 10.2358 12.204 10.1117 12.173H10.0497L7.63029 10.7772C7.63029 10.7772 7.50622 10.6532 7.44419 10.6221C7.38215 10.5601 7.35114 10.4981 7.2891 10.436V10.405L7.13401 11.8008L9.58439 20.1135V20.2376C9.58439 20.8889 9.39829 21.3232 9.08811 21.6023C8.87099 21.7884 8.65387 21.9125 8.40573 21.9435C8.15759 21.9745 7.90945 21.9435 7.66131 21.8815C7.25808 21.7264 6.91689 21.4162 6.73079 20.951L5.55212 16.8567C5.30398 17.6321 4.40448 19.5862 3.93922 20.5787C3.84616 20.8269 3.75311 21.013 3.69108 21.106C3.47395 21.5403 3.16378 21.7884 2.79157 21.8815C2.54343 21.9435 2.26427 21.9745 2.01613 21.8815C1.76799 21.8194 1.51986 21.6954 1.33375 21.5093C1.05459 21.2611 0.899506 20.8889 0.899506 20.4237C0.899506 20.3306 0.899506 20.2376 0.899506 20.1445C0.899506 20.0514 0.930524 19.9584 0.961541 19.8343L2.54343 16.2983L3.28785 10.0638L2.29529 12.6383C2.20224 13.1035 1.92308 13.3827 1.58189 13.5378C1.4268 13.5998 1.2407 13.6308 1.05459 13.6308C0.868488 13.6308 0.713401 13.5688 0.558314 13.4758C0.24814 13.2896 0 12.9174 0 12.4212V12.2661L1.14765 9.16432C1.14765 9.07127 1.17866 9.00923 1.2407 8.91618C1.27172 8.82313 1.33375 8.73008 1.39579 8.66804H1.4268L4.21837 5.78342C4.43549 5.5663 4.6216 5.44223 4.83872 5.34918C5.05584 5.25612 5.30398 5.19409 5.55212 5.19409C5.8623 5.19409 6.17247 5.25613 6.45163 5.41121C6.73079 5.53528 6.97893 5.75241 7.19605 6.03156H7.22707L9.02608 8.91618Z" fill="#285B4C"/>
</svg>
