<svg width="16" height="16" viewBox="0 0 16 16" fill="none" xmlns="http://www.w3.org/2000/svg">
<path d="M7.56826 0.241943C3.3809 0.241943 0 3.62284 0 7.8102C0 11.9976 3.3809 15.3785 7.56826 15.3785C11.7556 15.3785 15.1365 11.9976 15.1365 7.8102C15.1365 3.62284 11.7556 0.241943 7.56826 0.241943ZM7.56826 13.9206C4.18736 13.9206 1.45782 11.1911 1.45782 7.8102C1.45782 4.4293 4.18736 1.69977 7.56826 1.69977C10.9492 1.69977 13.6787 4.4293 13.6787 7.8102C13.6787 11.1911 10.9492 13.9206 7.56826 13.9206ZM9.46032 10.7569L6.85486 8.86479C6.85486 8.86479 6.69977 8.67869 6.69977 8.55462V3.56081C6.69977 3.34369 6.85486 3.1886 7.07198 3.1886H8.06454C8.28166 3.1886 8.43675 3.34369 8.43675 3.56081V7.87223L10.4839 9.36107C10.639 9.48514 10.67 9.70227 10.5459 9.88837L9.98762 10.6638C9.86355 10.8189 9.64643 10.8499 9.49134 10.7569" fill="#285B4C"/>
</svg>
