<svg width="301" height="284" viewBox="0 0 301 284" fill="none" xmlns="http://www.w3.org/2000/svg">
<path d="M0.666504 142.32C0.666504 64.172 64.0182 0.820312 142.167 0.820312H150.667C233.509 0.820312 300.667 67.9776 300.667 150.82V278.82C300.667 281.582 298.428 283.82 295.667 283.82H142.167C64.0182 283.82 0.666504 220.469 0.666504 142.32Z" fill="#F6EDD9"/>
<path d="M190.674 62.3224C191.929 62.6099 193.189 62.8746 194.437 63.1849C205.865 66.0345 214.678 76.1326 215.988 87.862C216.079 88.6834 216.189 89.5047 216.303 90.447C217.763 90.447 219.162 90.4379 220.56 90.447C223.572 90.4721 225.691 92.4388 225.666 95.1721C225.641 97.8506 223.556 99.7922 220.635 99.815C217.875 99.8355 215.114 99.815 212.353 99.8219C208.721 99.8287 206.926 101.645 206.923 105.323C206.919 114.28 206.928 123.24 206.923 132.197C206.905 160.194 189.764 183.427 162.99 191.75C162.657 191.852 162.335 191.998 161.934 192.154C164.202 196.689 166.49 201.125 168.619 205.635C169.123 206.701 169.376 208.049 169.246 209.21C169.02 211.209 167.282 212.642 165.324 212.897C163.351 213.155 161.466 212.154 160.471 210.191C158.098 205.505 155.771 200.796 153.426 196.096C152.299 193.837 152.301 193.897 149.707 194.063C147.998 194.173 146.275 194.084 144.288 194.084C144.544 194.727 144.676 195.142 144.868 195.528C146.536 198.882 148.222 202.224 149.885 205.58C151.293 208.421 150.562 211.173 148.094 212.421C145.616 213.675 142.956 212.63 141.534 209.806C139.102 204.976 136.675 200.141 134.286 195.288C133.896 194.497 133.46 194.148 132.527 194.164C129.196 194.228 125.86 194.232 122.529 194.164C121.498 194.141 121.101 194.517 120.793 195.45C118.295 203.057 115.746 210.648 113.211 218.243C112.173 221.348 110.845 222.311 107.581 222.313C98.6757 222.316 89.7685 222.304 80.8637 222.322C78.8148 222.327 77.1972 221.613 76.2207 219.76C75.267 217.953 75.6138 216.249 76.7295 214.622C100.487 180.018 121.359 143.607 143.487 107.983C149.885 97.6841 156.182 87.3236 162.474 76.9608C167.428 68.8043 174.521 63.915 184.003 62.562C184.254 62.5255 184.491 62.4 184.735 62.3179C186.714 62.3179 188.694 62.3179 190.672 62.3179L190.674 62.3224ZM107.537 184.821C111.101 184.821 114.38 184.78 117.658 184.83C123.2 184.914 128.712 184.565 134.056 183.071C156.223 176.87 170.503 162.614 176.855 140.534C178.511 134.775 179.358 128.807 178.495 122.781C177.567 116.297 172.31 110.837 165.983 109.544C159.255 108.168 152.636 111.029 149.073 116.849C135.55 138.943 122.027 161.038 108.507 183.135C108.215 183.609 107.95 184.102 107.537 184.821ZM156.595 183.643C157.206 183.541 157.514 183.507 157.811 183.436C180.661 178.033 197.254 157.378 197.519 133.89C197.626 124.417 197.576 114.939 197.537 105.464C197.512 99.0507 200.238 94.4009 206.045 91.5741C206.421 91.3916 206.844 90.7322 206.8 90.3443C206.027 83.5065 203.068 77.8985 197.074 74.2732C188.324 68.9777 176.741 71.9391 171.115 80.8645C167.343 86.849 163.713 92.9225 160.029 98.9594C159.862 99.2332 159.773 99.5526 159.611 99.9359C159.924 99.9359 160.077 99.9473 160.227 99.9359C172.951 98.9275 184.074 106.84 187.35 119.19C188.55 123.716 188.313 128.291 187.79 132.843C185.748 150.664 177.989 165.551 164.528 177.413C162.084 179.566 159.403 181.451 156.597 183.646L156.595 183.643ZM89.1274 212.945C94.2472 212.945 99.027 212.916 103.805 212.97C104.815 212.982 105.24 212.651 105.548 211.7C107.309 206.267 109.143 200.858 110.946 195.439C111.069 195.067 111.133 194.677 111.249 194.196C108.213 194.196 105.304 194.159 102.395 194.232C101.941 194.243 101.356 194.652 101.076 195.049C99.643 197.089 98.2901 199.188 96.9075 201.264C94.3795 205.06 91.8493 208.857 89.1251 212.943L89.1274 212.945Z" fill="#285B4C"/>
<path d="M192.933 90.4423C190.407 90.4834 188.24 88.4004 188.178 85.8724C188.114 83.2829 190.27 81.0766 192.864 81.0789C195.397 81.0812 197.523 83.1939 197.542 85.7264C197.56 88.2589 195.465 90.4036 192.933 90.4446V90.4423Z" fill="#285B4C"/>
</svg>
