<svg width="136" height="115" viewBox="0 0 136 115" fill="none" xmlns="http://www.w3.org/2000/svg">
<path opacity="0.8" d="M56.6382 0.709912C45.8992 7.70875 50.2011 36.9828 66.2491 66.0915C82.2935 95.1994 104.007 113.123 114.742 106.123L56.6382 0.709912Z" fill="#428036"/>
<path opacity="0.8" d="M43.4952 9.98079C33.2657 17.7713 40.9193 45.6072 60.5939 72.1578C80.2693 98.7049 104.509 113.913 114.742 106.123L43.4952 9.98079Z" fill="#428036"/>
<path opacity="0.8" d="M28.4504 22.5311C18.9744 31.1798 30.6066 56.9032 54.4366 79.9873C78.2666 103.071 105.266 114.772 114.743 106.119L28.4504 22.5311Z" fill="#A0B210"/>
<path opacity="0.8" d="M12.7666 38.3926C4.31906 47.8684 20.2991 70.7163 48.4607 89.419C76.6224 108.122 106.297 115.603 114.742 106.123L12.7666 38.3926Z" fill="#A0B210"/>
</svg>
