<svg width="131" height="83" viewBox="0 0 131 83" fill="none" xmlns="http://www.w3.org/2000/svg">
<path opacity="0.8" d="M0.299198 21.9663C3.59243 34.331 32.8164 39.4599 65.5698 33.4215C98.3232 27.3831 122.205 12.4653 118.908 0.101222L0.299198 21.9663Z" fill="#428036"/>
<path opacity="0.8" d="M5.00102 37.3241C9.20614 49.457 38.1146 50.9602 69.5717 40.6807C101.025 30.4019 123.117 12.2334 118.908 0.101121L5.00102 37.3241Z" fill="#428036"/>
<path opacity="0.8" d="M12.2281 55.5127C17.4881 67.2045 45.6329 64.2767 75.0933 48.9752C104.554 33.6737 124.168 11.7932 118.908 0.101405L12.2281 55.5127Z" fill="#A0B210"/>
<path opacity="0.8" d="M22.4037 75.3418C28.7759 86.3164 55.5449 78.369 82.1932 57.5947C108.841 36.8168 125.281 11.0757 118.908 0.101107L22.4037 75.3418Z" fill="#A0B210"/>
</svg>
