<svg width="140" height="189" viewBox="0 0 140 189" fill="none" xmlns="http://www.w3.org/2000/svg">
<path opacity="0.8" d="M60.6382 0.709912C49.8992 7.70875 54.2011 36.9828 70.2491 66.0915C86.2935 95.1994 108.007 113.123 118.742 106.123L60.6382 0.709912Z" fill="#428036"/>
<path opacity="0.8" d="M47.4952 9.98079C37.2657 17.7713 44.9193 45.6072 64.5939 72.1578C84.2693 98.7049 108.509 113.913 118.742 106.123L47.4952 9.98079Z" fill="#428036"/>
<path opacity="0.8" d="M32.4504 22.5311C22.9744 31.1798 34.6066 56.9032 58.4366 79.9873C82.2666 103.071 109.266 114.772 118.743 106.119L32.4504 22.5311Z" fill="#A0B210"/>
<path opacity="0.8" d="M16.7666 38.3926C8.31906 47.8684 24.2991 70.7163 52.4607 89.419C80.6224 108.122 110.297 115.603 118.742 106.123L16.7666 38.3926Z" fill="#A0B210"/>
<path opacity="0.8" d="M0.299198 127.966C3.59243 140.331 32.8164 145.46 65.5698 139.421C98.3232 133.383 122.205 118.465 118.908 106.101L0.299198 127.966Z" fill="#428036"/>
<path opacity="0.8" d="M5.00102 143.324C9.20614 155.457 38.1146 156.96 69.5717 146.681C101.025 136.402 123.117 118.233 118.908 106.101L5.00102 143.324Z" fill="#428036"/>
<path opacity="0.8" d="M12.2281 161.513C17.4881 173.205 45.6329 170.277 75.0933 154.975C104.554 139.674 124.168 117.793 118.908 106.101L12.2281 161.513Z" fill="#A0B210"/>
<path opacity="0.8" d="M22.4037 181.342C28.7759 192.316 55.5449 184.369 82.1932 163.595C108.841 142.817 125.281 117.076 118.908 106.101L22.4037 181.342Z" fill="#A0B210"/>
</svg>
