<svg width="122" height="154" viewBox="0 0 122 154" fill="none" xmlns="http://www.w3.org/2000/svg">
<path opacity="0.8" d="M39.3275 0C30.536 9.32827 41.6023 36.7693 64.0464 61.287C86.4868 85.8048 111.806 98.1184 120.594 88.7901L39.3275 0Z" fill="#428036"/>
<path opacity="0.8" d="M28.7337 12.1021C20.6235 22.0799 34.6094 47.3349 59.9767 68.5133C85.344 89.688 112.481 98.7681 120.594 88.7902L28.7337 12.1021Z" fill="#428036"/>
<path opacity="0.8" d="M17.0629 27.8389C9.88683 38.4737 27.2428 60.7396 55.8337 77.5714C84.4245 94.4032 113.418 99.425 120.594 88.7865L17.0629 27.8389Z" fill="#A0B210"/>
<path opacity="0.8" d="M5.54969 46.9443C-0.432224 58.1412 20.4733 76.5897 52.2438 88.1442C84.0143 99.6987 114.616 99.9907 120.594 88.7902L5.54969 46.9443Z" fill="#A0B210"/>
<path opacity="0.8" d="M0 90.5856C1.18686 103.326 29.1476 113.253 62.4493 112.757C95.7509 112.26 121.785 101.531 120.594 88.79L0 90.5856Z" fill="#428036"/>
<path opacity="0.8" d="M2.07703 106.512C4.20165 119.176 32.4555 125.475 65.1857 120.581C97.9122 115.687 122.723 101.454 120.594 88.79L2.07703 106.512Z" fill="#428036"/>
<path opacity="0.8" d="M6.17236 125.651C9.41058 138.055 37.6498 139.858 69.2481 129.68C100.846 119.501 123.833 101.195 120.594 88.79L6.17236 125.651Z" fill="#A0B210"/>
<path opacity="0.8" d="M12.9016 146.898C17.356 158.781 45.075 155.405 74.8124 139.362C104.55 123.315 125.049 100.673 120.594 88.79L12.9016 146.898Z" fill="#A0B210"/>
</svg>
