<svg width="137" height="69" viewBox="0 0 137 69" fill="none" xmlns="http://www.w3.org/2000/svg">
<path d="M118.267 34.4101C118.267 53.3368 102.845 68.7014 83.8478 68.7014H69.3527C31.3586 68.7014 0.511256 37.9685 0.511256 0.115234L83.8441 0.115234C102.841 0.115234 118.263 15.4799 118.263 34.4065L118.267 34.4101Z" fill="#C0D519"/>
<path d="M137 34.4101C128.117 33.0014 120.802 29.3519 115.889 22.2681V46.5559C121.12 39.4575 128.37 35.7751 137 34.4138V34.4101Z" fill="#1F483C"/>
<path d="M137 34.4101C128.117 33.0014 120.802 29.3519 115.889 22.2681V46.5559C121.12 39.4575 128.37 35.7751 137 34.4138V34.4101Z" fill="black" fill-opacity="0.2"/>
<path d="M90.8333 43.9357C97.196 43.9357 102.354 38.7969 102.354 32.4578C102.354 26.1188 97.196 20.98 90.8333 20.98C84.4707 20.98 79.3127 26.1188 79.3127 32.4578C79.3127 38.7969 84.4707 43.9357 90.8333 43.9357Z" fill="white"/>
<path d="M90.8333 37.2313C93.4795 37.2313 95.6247 35.0941 95.6247 32.4577C95.6247 29.8213 93.4795 27.6841 90.8333 27.6841C88.187 27.6841 86.0419 29.8213 86.0419 32.4577C86.0419 35.0941 88.187 37.2313 90.8333 37.2313Z" fill="#1D1D1B"/>
<path d="M92.8004 31.3446C93.6723 31.3446 94.3792 30.6404 94.3792 29.7717C94.3792 28.903 93.6723 28.1987 92.8004 28.1987C91.9284 28.1987 91.2216 28.903 91.2216 29.7717C91.2216 30.6404 91.9284 31.3446 92.8004 31.3446Z" fill="white"/>
</svg>
