<svg width="32" height="32" viewBox="0 0 32 32" fill="none" xmlns="http://www.w3.org/2000/svg">
<path d="M16.0028 0C7.16422 0 0 7.16422 0 16C0 24.8358 7.16422 32 16 32C24.8358 32 32 24.8358 32 16C32 7.16422 24.8385 0 16.0028 0ZM16.0028 21.2468C13.1045 21.2468 10.756 18.8983 10.756 16C10.756 13.1017 13.1045 10.7532 16.0028 10.7532C18.9011 10.7532 21.2495 13.1017 21.2495 16C21.2495 18.8983 18.9011 21.2468 16.0028 21.2468Z" fill="#285B4C"/>
<path d="M18.4004 13.6324C18.475 13.7816 18.5192 13.9473 18.5192 14.1242C18.5192 14.7403 18.0219 15.2376 17.4057 15.2376C16.7896 15.2376 16.2923 14.7403 16.2923 14.1242C16.2923 13.508 16.7896 13.0107 17.4057 13.0107C17.461 13.0107 17.5163 13.019 17.5688 13.0273C17.1046 12.7869 16.5769 12.646 16.016 12.646C14.1483 12.646 12.637 14.1601 12.637 16.025C12.637 17.89 14.151 19.4041 16.016 19.4041C17.881 19.4041 19.395 17.89 19.395 16.025C19.395 15.0884 19.0138 14.243 18.4004 13.6296V13.6324Z" fill="#285B4C"/>
</svg>
