<svg width="231" height="117" viewBox="0 0 231 117" fill="none" xmlns="http://www.w3.org/2000/svg">
<path d="M231 74.5745C231 51.1467 212.088 32.1493 188.755 32.1493H104.699C104.699 55.577 123.611 74.5745 146.945 74.5745H231Z" fill="#A0B210"/>
<path d="M62.5508 117C62.5508 93.5723 81.4626 74.5748 104.796 74.5748H188.852C188.852 98.0026 169.94 117 146.606 117H62.5508Z" fill="#A0B210"/>
<path d="M0 0H85.7616C130.133 0 166.159 36.1785 166.159 80.739H80.397C36.0252 80.739 0 44.5606 0 0Z" fill="#285B4C"/>
<path d="M188.646 68.3796C197.546 68.3796 204.761 61.1344 204.761 52.1968C204.761 43.2593 197.546 36.014 188.646 36.014C179.747 36.014 172.532 43.2593 172.532 52.1968C172.532 61.1344 179.747 68.3796 188.646 68.3796Z" fill="white"/>
<path d="M188.646 58.9271C192.348 58.9271 195.348 55.9138 195.348 52.1967C195.348 48.4796 192.348 45.4663 188.646 45.4663C184.945 45.4663 181.944 48.4796 181.944 52.1967C181.944 55.9138 184.945 58.9271 188.646 58.9271Z" fill="#1D1D1B"/>
<path d="M191.398 50.6271C192.617 50.6271 193.606 49.6342 193.606 48.4094C193.606 47.1846 192.617 46.1917 191.398 46.1917C190.178 46.1917 189.189 47.1846 189.189 48.4094C189.189 49.6342 190.178 50.6271 191.398 50.6271Z" fill="white"/>
<path d="M216.254 89.3786C224.396 89.3786 230.995 82.7511 230.995 74.5748H216.254V89.3786Z" fill="#285B4C"/>
</svg>
