<svg width="180" height="151" viewBox="0 0 180 151" fill="none" xmlns="http://www.w3.org/2000/svg">
<path d="M146.788 151H111.464C67.9226 151 32.623 115.676 32.623 72.1042V0H68.7768C104.001 0 132.553 28.5756 132.553 63.8212C133.518 102.364 137.56 133.179 146.788 151Z" fill="#A0B210"/>
<path d="M78.5865 60.1374C89.8353 60.1374 98.9542 51.0121 98.9542 39.7554C98.9542 28.4988 89.8353 19.3734 78.5865 19.3734C67.3377 19.3734 58.2188 28.4988 58.2188 39.7554C58.2188 51.0121 67.3377 60.1374 78.5865 60.1374Z" fill="white"/>
<path d="M78.5864 48.2315C83.2643 48.2315 87.0566 44.4366 87.0566 39.7554C87.0566 35.0742 83.2643 31.2793 78.5864 31.2793C73.9084 31.2793 70.1162 35.0742 70.1162 39.7554C70.1162 44.4366 73.9084 48.2315 78.5864 48.2315Z" fill="#1D1D1B"/>
<path d="M82.0676 37.7776C83.6091 37.7776 84.8588 36.5271 84.8588 34.9845C84.8588 33.4418 83.6091 32.1913 82.0676 32.1913C80.526 32.1913 79.2764 33.4418 79.2764 34.9845C79.2764 36.5271 80.526 37.7776 82.0676 37.7776Z" fill="white"/>
<path d="M0 0C18.2663 1.50567 32.6227 16.8163 32.6227 35.4817V0H0Z" fill="#1F483C"/>
<path d="M64.1016 79.7539H123.922C154.872 79.7539 180 104.9 180 135.872H120.18C89.2298 135.872 64.1016 110.726 64.1016 79.7539Z" fill="#1F483C"/>
</svg>
