<svg width="1920" height="55" viewBox="0 0 1920 55" fill="none" xmlns="http://www.w3.org/2000/svg">
<g clip-path="url(#clip0_1508_3253)">
<path d="M26.34 0.820312H-27V54.1603H26.34V0.820312Z" fill="#285B4C"/>
<path d="M1.90985 32.1303C7.85985 31.1603 11.9098 25.5503 10.9398 19.6003C9.96985 13.6503 4.35985 9.60028 -1.59015 10.5703C-7.54015 11.5403 -11.5902 17.1503 -10.6202 23.1003C-9.66015 29.0503 -4.05015 33.0903 1.90985 32.1303Z" fill="#F6EDD9"/>
<path d="M9.70006 33.6201C4.44006 33.6201 0.180058 37.8801 0.180058 43.1401V43.3001C-0.439943 37.8401 -5.05994 33.6201 -10.6799 33.6201H-18.9399C-18.9399 39.6601 -14.0399 44.5401 -8.01994 44.5401H8.76006C14.0201 44.5401 18.2801 40.2801 18.2801 35.0201V33.6201H9.70006Z" fill="#F6EDD9"/>
<path d="M79.6898 0.820312H26.3398V54.1603H79.6798V0.820312H79.6898Z" fill="#F6EDD9"/>
<path d="M43.7197 27.6802C48.9697 27.6802 53.2197 23.4302 53.2197 18.1802C53.2197 12.9302 48.9697 8.68018 43.7197 8.68018C38.4697 8.68018 34.2197 12.9302 34.2197 18.1802C34.2197 23.4202 38.4697 27.6802 43.7197 27.6802Z" fill="#285B4C"/>
<path d="M62.3198 27.6802C67.5698 27.6802 71.8198 23.4302 71.8198 18.1802C71.8198 12.9302 67.5698 8.68018 62.3198 8.68018C57.0698 8.68018 52.8198 12.9302 52.8198 18.1802C52.8198 23.4202 57.0698 27.6802 62.3198 27.6802Z" fill="#285B4C"/>
<path d="M43.7197 46.3003C48.9697 46.3003 53.2197 42.0503 53.2197 36.8003C53.2197 31.5503 48.9697 27.3003 43.7197 27.3003C38.4697 27.3003 34.2197 31.5503 34.2197 36.8003C34.2197 42.0403 38.4697 46.3003 43.7197 46.3003Z" fill="#285B4C"/>
<path d="M62.3198 46.3003C67.5698 46.3003 71.8198 42.0503 71.8198 36.8003C71.8198 31.5503 67.5698 27.3003 62.3198 27.3003C57.0698 27.3003 52.8198 31.5503 52.8198 36.8003C52.8198 42.0403 57.0698 46.3003 62.3198 46.3003Z" fill="#285B4C"/>
<path d="M53.0199 35.6301C57.5199 35.6301 61.1599 31.9901 61.1599 27.4901C61.1599 22.9901 57.5199 19.3501 53.0199 19.3501C48.5199 19.3501 44.8799 22.9901 44.8799 27.4901C44.8799 31.9901 48.5199 35.6301 53.0199 35.6301Z" fill="#F6EDD9"/>
<path d="M133.03 0.820312H79.6899V54.1603H133.03V0.820312Z" fill="#285B4C"/>
<path d="M119.12 30.3004C119.12 37.3604 113.4 43.0604 106.36 43.0604C99.3201 43.0604 93.6001 37.3404 93.6001 30.3004C93.6001 23.2604 106.36 11.9204 106.36 11.9204C106.36 11.9204 119.12 23.2404 119.12 30.3004Z" fill="#F6EDD9"/>
<path d="M186.37 0.820312H133.03V54.1603H186.37V0.820312Z" fill="#F6EDD9"/>
<path d="M176.04 27.4105C175.96 18.4705 168.68 11.2305 159.7 11.2305C150.72 11.2305 143.46 18.4505 143.36 27.4105C143.36 27.4105 143.36 27.4705 143.36 27.4905C143.36 27.5105 143.36 27.5505 143.36 27.5705C143.44 36.5105 150.72 43.7505 159.7 43.7505C168.68 43.7505 175.94 36.5305 176.04 27.5705C176.04 27.5705 176.04 27.5105 176.04 27.4905C176.04 27.4705 176.04 27.4305 176.04 27.4105ZM159.7 43.7505C159.7 35.2905 153.26 28.3105 145 27.4905C153.26 26.6705 159.7 19.6905 159.7 11.2305C159.7 19.6905 166.14 26.6705 174.4 27.4905C166.14 28.3105 159.7 35.2905 159.7 43.7505Z" fill="#285B4C"/>
<path d="M239.71 0.820312H186.37V54.1603H239.71V0.820312Z" fill="#285B4C"/>
<path d="M218.82 27.4102H207.62C207.62 34.5502 214.26 40.3502 222.44 40.3502H233.64C233.64 33.2102 227 27.4102 218.82 27.4102Z" fill="#F6EDD9"/>
<path d="M223.86 14.6304H205.38C198.24 14.6304 192.44 20.4304 192.44 27.5704H210.92C218.06 27.5704 223.86 21.7704 223.86 14.6304Z" fill="#F6EDD9"/>
<path d="M293.05 0.820312H239.71V54.1603H293.05V0.820312Z" fill="#F6EDD9"/>
<path d="M284.38 11.6802C274.44 11.6802 266.38 19.7402 266.38 29.6802C266.38 19.7402 258.32 11.6802 248.38 11.6802V25.3002C248.38 35.2402 256.44 43.3002 266.38 43.3002C276.32 43.3002 284.38 35.2402 284.38 25.3002V11.6802Z" fill="#285B4C"/>
<path d="M346.39 0.820312H293.05V54.1603H346.39V0.820312Z" fill="#285B4C"/>
<path d="M321.96 32.1303C327.91 31.1603 331.96 25.5503 330.99 19.6003C330.02 13.6503 324.41 9.60028 318.46 10.5703C312.51 11.5403 308.46 17.1503 309.43 23.1003C310.39 29.0503 316 33.0903 321.96 32.1303Z" fill="#F6EDD9"/>
<path d="M329.75 33.6201C324.49 33.6201 320.23 37.8801 320.23 43.1401V43.3001C319.61 37.8401 314.99 33.6201 309.37 33.6201H301.11C301.11 39.6601 306.01 44.5401 312.03 44.5401H328.81C334.07 44.5401 338.33 40.2801 338.33 35.0201V33.6201H329.75Z" fill="#F6EDD9"/>
<path d="M399.74 0.820312H346.39V54.1603H399.73V0.820312H399.74Z" fill="#F6EDD9"/>
<path d="M363.77 27.6802C369.02 27.6802 373.27 23.4302 373.27 18.1802C373.27 12.9302 369.02 8.68018 363.77 8.68018C358.52 8.68018 354.27 12.9302 354.27 18.1802C354.27 23.4202 358.52 27.6802 363.77 27.6802Z" fill="#285B4C"/>
<path d="M382.37 27.6802C387.62 27.6802 391.87 23.4302 391.87 18.1802C391.87 12.9302 387.62 8.68018 382.37 8.68018C377.12 8.68018 372.87 12.9302 372.87 18.1802C372.87 23.4202 377.12 27.6802 382.37 27.6802Z" fill="#285B4C"/>
<path d="M363.77 46.3003C369.02 46.3003 373.27 42.0503 373.27 36.8003C373.27 31.5503 369.02 27.3003 363.77 27.3003C358.52 27.3003 354.27 31.5503 354.27 36.8003C354.27 42.0403 358.52 46.3003 363.77 46.3003Z" fill="#285B4C"/>
<path d="M382.37 46.3003C387.62 46.3003 391.87 42.0503 391.87 36.8003C391.87 31.5503 387.62 27.3003 382.37 27.3003C377.12 27.3003 372.87 31.5503 372.87 36.8003C372.87 42.0403 377.12 46.3003 382.37 46.3003Z" fill="#285B4C"/>
<path d="M373.07 35.6301C377.57 35.6301 381.21 31.9901 381.21 27.4901C381.21 22.9901 377.57 19.3501 373.07 19.3501C368.57 19.3501 364.93 22.9901 364.93 27.4901C364.93 31.9901 368.57 35.6301 373.07 35.6301Z" fill="#F6EDD9"/>
<path d="M453.08 0.820312H399.74V54.1603H453.08V0.820312Z" fill="#285B4C"/>
<path d="M439.17 30.3004C439.17 37.3604 433.45 43.0604 426.41 43.0604C419.37 43.0604 413.65 37.3404 413.65 30.3004C413.65 23.2604 426.41 11.9204 426.41 11.9204C426.41 11.9204 439.17 23.2404 439.17 30.3004Z" fill="#F6EDD9"/>
<path d="M506.42 0.820312H453.08V54.1603H506.42V0.820312Z" fill="#F6EDD9"/>
<path d="M496.09 27.4105C496.01 18.4705 488.73 11.2305 479.75 11.2305C470.77 11.2305 463.51 18.4505 463.41 27.4105C463.41 27.4105 463.41 27.4705 463.41 27.4905C463.41 27.5105 463.41 27.5505 463.41 27.5705C463.49 36.5105 470.77 43.7505 479.75 43.7505C488.73 43.7505 495.99 36.5305 496.09 27.5705C496.09 27.5705 496.09 27.5105 496.09 27.4905C496.09 27.4705 496.09 27.4305 496.09 27.4105ZM479.75 43.7505C479.75 35.2905 473.31 28.3105 465.05 27.4905C473.31 26.6705 479.75 19.6905 479.75 11.2305C479.75 19.6905 486.19 26.6705 494.45 27.4905C486.19 28.3105 479.75 35.2905 479.75 43.7505Z" fill="#285B4C"/>
<path d="M559.76 0.820312H506.42V54.1603H559.76V0.820312Z" fill="#285B4C"/>
<path d="M538.87 27.4102H527.67C527.67 34.5502 534.31 40.3502 542.49 40.3502H553.69C553.69 33.2102 547.05 27.4102 538.87 27.4102Z" fill="#F6EDD9"/>
<path d="M543.91 14.6304H525.43C518.29 14.6304 512.49 20.4304 512.49 27.5704H530.97C538.11 27.5704 543.91 21.7704 543.91 14.6304Z" fill="#F6EDD9"/>
<path d="M613.1 0.820312H559.76V54.1603H613.1V0.820312Z" fill="#F6EDD9"/>
<path d="M604.43 11.6802C594.49 11.6802 586.43 19.7402 586.43 29.6802C586.43 19.7402 578.37 11.6802 568.43 11.6802V25.3002C568.43 35.2402 576.49 43.3002 586.43 43.3002C596.37 43.3002 604.43 35.2402 604.43 25.3002V11.6802Z" fill="#285B4C"/>
<path d="M666.44 0.820312H613.1V54.1603H666.44V0.820312Z" fill="#285B4C"/>
<path d="M642.01 32.1303C647.96 31.1603 652.01 25.5503 651.04 19.6003C650.07 13.6503 644.46 9.60028 638.51 10.5703C632.56 11.5403 628.51 17.1503 629.48 23.1003C630.44 29.0503 636.05 33.0903 642.01 32.1303Z" fill="#F6EDD9"/>
<path d="M649.8 33.6201C644.54 33.6201 640.28 37.8801 640.28 43.1401V43.3001C639.66 37.8401 635.04 33.6201 629.42 33.6201H621.16C621.16 39.6601 626.06 44.5401 632.08 44.5401H648.86C654.12 44.5401 658.38 40.2801 658.38 35.0201V33.6201H649.8Z" fill="#F6EDD9"/>
<path d="M719.79 0.820312H666.44V54.1603H719.78V0.820312H719.79Z" fill="#F6EDD9"/>
<path d="M683.82 27.6802C689.07 27.6802 693.32 23.4302 693.32 18.1802C693.32 12.9302 689.07 8.68018 683.82 8.68018C678.57 8.68018 674.32 12.9302 674.32 18.1802C674.32 23.4202 678.57 27.6802 683.82 27.6802Z" fill="#285B4C"/>
<path d="M702.42 27.6802C707.67 27.6802 711.92 23.4302 711.92 18.1802C711.92 12.9302 707.67 8.68018 702.42 8.68018C697.17 8.68018 692.92 12.9302 692.92 18.1802C692.92 23.4202 697.17 27.6802 702.42 27.6802Z" fill="#285B4C"/>
<path d="M683.82 46.3003C689.07 46.3003 693.32 42.0503 693.32 36.8003C693.32 31.5503 689.07 27.3003 683.82 27.3003C678.57 27.3003 674.32 31.5503 674.32 36.8003C674.32 42.0403 678.57 46.3003 683.82 46.3003Z" fill="#285B4C"/>
<path d="M702.42 46.3003C707.67 46.3003 711.92 42.0503 711.92 36.8003C711.92 31.5503 707.67 27.3003 702.42 27.3003C697.17 27.3003 692.92 31.5503 692.92 36.8003C692.92 42.0403 697.17 46.3003 702.42 46.3003Z" fill="#285B4C"/>
<path d="M693.12 35.6301C697.62 35.6301 701.26 31.9901 701.26 27.4901C701.26 22.9901 697.62 19.3501 693.12 19.3501C688.62 19.3501 684.98 22.9901 684.98 27.4901C684.98 31.9901 688.62 35.6301 693.12 35.6301Z" fill="#F6EDD9"/>
<path d="M773.13 0.820312H719.79V54.1603H773.13V0.820312Z" fill="#285B4C"/>
<path d="M759.22 30.3004C759.22 37.3604 753.5 43.0604 746.46 43.0604C739.42 43.0604 733.7 37.3404 733.7 30.3004C733.7 23.2604 746.46 11.9204 746.46 11.9204C746.46 11.9204 759.22 23.2404 759.22 30.3004Z" fill="#F6EDD9"/>
<path d="M826.47 0.820312H773.13V54.1603H826.47V0.820312Z" fill="#F6EDD9"/>
<path d="M816.14 27.4105C816.06 18.4705 808.78 11.2305 799.8 11.2305C790.82 11.2305 783.56 18.4505 783.46 27.4105C783.46 27.4105 783.46 27.4705 783.46 27.4905C783.46 27.5105 783.46 27.5505 783.46 27.5705C783.54 36.5105 790.82 43.7505 799.8 43.7505C808.78 43.7505 816.04 36.5305 816.14 27.5705C816.14 27.5705 816.14 27.5105 816.14 27.4905C816.14 27.4705 816.14 27.4305 816.14 27.4105ZM799.8 43.7505C799.8 35.2905 793.36 28.3105 785.1 27.4905C793.36 26.6705 799.8 19.6905 799.8 11.2305C799.8 19.6905 806.24 26.6705 814.5 27.4905C806.24 28.3105 799.8 35.2905 799.8 43.7505Z" fill="#285B4C"/>
<path d="M879.81 0.820312H826.47V54.1603H879.81V0.820312Z" fill="#285B4C"/>
<path d="M858.92 27.4102H847.72C847.72 34.5502 854.36 40.3502 862.54 40.3502H873.74C873.74 33.2102 867.1 27.4102 858.92 27.4102Z" fill="#F6EDD9"/>
<path d="M863.96 14.6304H845.48C838.34 14.6304 832.54 20.4304 832.54 27.5704H851.02C858.16 27.5704 863.96 21.7704 863.96 14.6304Z" fill="#F6EDD9"/>
<path d="M933.15 0.820312H879.81V54.1603H933.15V0.820312Z" fill="#F6EDD9"/>
<path d="M924.48 11.6802C914.54 11.6802 906.48 19.7402 906.48 29.6802C906.48 19.7402 898.42 11.6802 888.48 11.6802V25.3002C888.48 35.2402 896.54 43.3002 906.48 43.3002C916.42 43.3002 924.48 35.2402 924.48 25.3002V11.6802Z" fill="#285B4C"/>
<path d="M986.49 0.820312H933.15V54.1603H986.49V0.820312Z" fill="#285B4C"/>
<path d="M962.06 32.1303C968.01 31.1603 972.06 25.5503 971.09 19.6003C970.12 13.6503 964.51 9.60028 958.56 10.5703C952.61 11.5403 948.56 17.1503 949.53 23.1003C950.49 29.0503 956.1 33.0903 962.06 32.1303Z" fill="#F6EDD9"/>
<path d="M969.85 33.6201C964.59 33.6201 960.33 37.8801 960.33 43.1401V43.3001C959.71 37.8401 955.09 33.6201 949.47 33.6201H941.21C941.21 39.6601 946.11 44.5401 952.13 44.5401H968.91C974.17 44.5401 978.43 40.2801 978.43 35.0201V33.6201H969.85Z" fill="#F6EDD9"/>
<path d="M1039.84 0.820312H986.49V54.1603H1039.83V0.820312H1039.84Z" fill="#F6EDD9"/>
<path d="M1003.87 27.6802C1009.12 27.6802 1013.37 23.4302 1013.37 18.1802C1013.37 12.9302 1009.12 8.68018 1003.87 8.68018C998.62 8.68018 994.37 12.9302 994.37 18.1802C994.37 23.4202 998.62 27.6802 1003.87 27.6802Z" fill="#285B4C"/>
<path d="M1022.47 27.6802C1027.72 27.6802 1031.97 23.4302 1031.97 18.1802C1031.97 12.9302 1027.72 8.68018 1022.47 8.68018C1017.22 8.68018 1012.97 12.9302 1012.97 18.1802C1012.97 23.4202 1017.22 27.6802 1022.47 27.6802Z" fill="#285B4C"/>
<path d="M1003.87 46.3003C1009.12 46.3003 1013.37 42.0503 1013.37 36.8003C1013.37 31.5503 1009.12 27.3003 1003.87 27.3003C998.62 27.3003 994.37 31.5503 994.37 36.8003C994.37 42.0403 998.62 46.3003 1003.87 46.3003Z" fill="#285B4C"/>
<path d="M1022.47 46.3003C1027.72 46.3003 1031.97 42.0503 1031.97 36.8003C1031.97 31.5503 1027.72 27.3003 1022.47 27.3003C1017.22 27.3003 1012.97 31.5503 1012.97 36.8003C1012.97 42.0403 1017.22 46.3003 1022.47 46.3003Z" fill="#285B4C"/>
<path d="M1013.17 35.6301C1017.67 35.6301 1021.31 31.9901 1021.31 27.4901C1021.31 22.9901 1017.67 19.3501 1013.17 19.3501C1008.67 19.3501 1005.03 22.9901 1005.03 27.4901C1005.03 31.9901 1008.67 35.6301 1013.17 35.6301Z" fill="#F6EDD9"/>
<path d="M1093.18 0.820312H1039.84V54.1603H1093.18V0.820312Z" fill="#285B4C"/>
<path d="M1079.27 30.3004C1079.27 37.3604 1073.55 43.0604 1066.51 43.0604C1059.47 43.0604 1053.75 37.3404 1053.75 30.3004C1053.75 23.2604 1066.51 11.9204 1066.51 11.9204C1066.51 11.9204 1079.27 23.2404 1079.27 30.3004Z" fill="#F6EDD9"/>
<path d="M1146.52 0.820312H1093.18V54.1603H1146.52V0.820312Z" fill="#F6EDD9"/>
<path d="M1136.19 27.4105C1136.11 18.4705 1128.83 11.2305 1119.85 11.2305C1110.87 11.2305 1103.61 18.4505 1103.51 27.4105C1103.51 27.4105 1103.51 27.4705 1103.51 27.4905C1103.51 27.5105 1103.51 27.5505 1103.51 27.5705C1103.59 36.5105 1110.87 43.7505 1119.85 43.7505C1128.83 43.7505 1136.09 36.5305 1136.19 27.5705C1136.19 27.5705 1136.19 27.5105 1136.19 27.4905C1136.19 27.4705 1136.19 27.4305 1136.19 27.4105ZM1119.85 43.7505C1119.85 35.2905 1113.41 28.3105 1105.15 27.4905C1113.41 26.6705 1119.85 19.6905 1119.85 11.2305C1119.85 19.6905 1126.29 26.6705 1134.55 27.4905C1126.29 28.3105 1119.85 35.2905 1119.85 43.7505Z" fill="#285B4C"/>
<path d="M1199.86 0.820312H1146.52V54.1603H1199.86V0.820312Z" fill="#285B4C"/>
<path d="M1178.97 27.4102H1167.77C1167.77 34.5502 1174.41 40.3502 1182.59 40.3502H1193.79C1193.79 33.2102 1187.15 27.4102 1178.97 27.4102Z" fill="#F6EDD9"/>
<path d="M1184.01 14.6304H1165.53C1158.39 14.6304 1152.59 20.4304 1152.59 27.5704H1171.07C1178.21 27.5704 1184.01 21.7704 1184.01 14.6304Z" fill="#F6EDD9"/>
<path d="M1253.2 0.820312H1199.86V54.1603H1253.2V0.820312Z" fill="#F6EDD9"/>
<path d="M1244.53 11.6802C1234.59 11.6802 1226.53 19.7402 1226.53 29.6802C1226.53 19.7402 1218.47 11.6802 1208.53 11.6802V25.3002C1208.53 35.2402 1216.59 43.3002 1226.53 43.3002C1236.47 43.3002 1244.53 35.2402 1244.53 25.3002V11.6802Z" fill="#285B4C"/>
<path d="M1306.54 0.820312H1253.2V54.1603H1306.54V0.820312Z" fill="#285B4C"/>
<path d="M1282.11 32.1303C1288.06 31.1603 1292.11 25.5503 1291.14 19.6003C1290.17 13.6503 1284.56 9.60028 1278.61 10.5703C1272.66 11.5403 1268.61 17.1503 1269.58 23.1003C1270.54 29.0503 1276.15 33.0903 1282.11 32.1303Z" fill="#F6EDD9"/>
<path d="M1289.9 33.6201C1284.64 33.6201 1280.38 37.8801 1280.38 43.1401V43.3001C1279.76 37.8401 1275.14 33.6201 1269.52 33.6201H1261.26C1261.26 39.6601 1266.16 44.5401 1272.18 44.5401H1288.96C1294.22 44.5401 1298.48 40.2801 1298.48 35.0201V33.6201H1289.9Z" fill="#F6EDD9"/>
<path d="M1359.89 0.820312H1306.54V54.1603H1359.88V0.820312H1359.89Z" fill="#F6EDD9"/>
<path d="M1323.92 27.6802C1329.17 27.6802 1333.42 23.4302 1333.42 18.1802C1333.42 12.9302 1329.17 8.68018 1323.92 8.68018C1318.67 8.68018 1314.42 12.9302 1314.42 18.1802C1314.42 23.4202 1318.67 27.6802 1323.92 27.6802Z" fill="#285B4C"/>
<path d="M1342.52 27.6802C1347.77 27.6802 1352.02 23.4302 1352.02 18.1802C1352.02 12.9302 1347.77 8.68018 1342.52 8.68018C1337.27 8.68018 1333.02 12.9302 1333.02 18.1802C1333.02 23.4202 1337.27 27.6802 1342.52 27.6802Z" fill="#285B4C"/>
<path d="M1323.92 46.3003C1329.17 46.3003 1333.42 42.0503 1333.42 36.8003C1333.42 31.5503 1329.17 27.3003 1323.92 27.3003C1318.67 27.3003 1314.42 31.5503 1314.42 36.8003C1314.42 42.0403 1318.67 46.3003 1323.92 46.3003Z" fill="#285B4C"/>
<path d="M1342.52 46.3003C1347.77 46.3003 1352.02 42.0503 1352.02 36.8003C1352.02 31.5503 1347.77 27.3003 1342.52 27.3003C1337.27 27.3003 1333.02 31.5503 1333.02 36.8003C1333.02 42.0403 1337.27 46.3003 1342.52 46.3003Z" fill="#285B4C"/>
<path d="M1333.22 35.6301C1337.72 35.6301 1341.36 31.9901 1341.36 27.4901C1341.36 22.9901 1337.72 19.3501 1333.22 19.3501C1328.72 19.3501 1325.08 22.9901 1325.08 27.4901C1325.08 31.9901 1328.72 35.6301 1333.22 35.6301Z" fill="#F6EDD9"/>
<path d="M1413.23 0.820312H1359.89V54.1603H1413.23V0.820312Z" fill="#285B4C"/>
<path d="M1399.32 30.3004C1399.32 37.3604 1393.6 43.0604 1386.56 43.0604C1379.52 43.0604 1373.8 37.3404 1373.8 30.3004C1373.8 23.2604 1386.56 11.9204 1386.56 11.9204C1386.56 11.9204 1399.32 23.2404 1399.32 30.3004Z" fill="#F6EDD9"/>
<path d="M1466.57 0.820312H1413.23V54.1603H1466.57V0.820312Z" fill="#F6EDD9"/>
<path d="M1456.24 27.4105C1456.16 18.4705 1448.88 11.2305 1439.9 11.2305C1430.92 11.2305 1423.66 18.4505 1423.56 27.4105C1423.56 27.4105 1423.56 27.4705 1423.56 27.4905C1423.56 27.5105 1423.56 27.5505 1423.56 27.5705C1423.64 36.5105 1430.92 43.7505 1439.9 43.7505C1448.88 43.7505 1456.14 36.5305 1456.24 27.5705C1456.24 27.5705 1456.24 27.5105 1456.24 27.4905C1456.24 27.4705 1456.24 27.4305 1456.24 27.4105ZM1439.9 43.7505C1439.9 35.2905 1433.46 28.3105 1425.2 27.4905C1433.46 26.6705 1439.9 19.6905 1439.9 11.2305C1439.9 19.6905 1446.34 26.6705 1454.6 27.4905C1446.34 28.3105 1439.9 35.2905 1439.9 43.7505Z" fill="#285B4C"/>
<path d="M1519.91 0.820312H1466.57V54.1603H1519.91V0.820312Z" fill="#285B4C"/>
<path d="M1499.02 27.4102H1487.82C1487.82 34.5502 1494.46 40.3502 1502.64 40.3502H1513.84C1513.84 33.2102 1507.2 27.4102 1499.02 27.4102Z" fill="#F6EDD9"/>
<path d="M1504.06 14.6304H1485.58C1478.44 14.6304 1472.64 20.4304 1472.64 27.5704H1491.12C1498.26 27.5704 1504.06 21.7704 1504.06 14.6304Z" fill="#F6EDD9"/>
<path d="M1573.25 0.820312H1519.91V54.1603H1573.25V0.820312Z" fill="#F6EDD9"/>
<path d="M1564.58 11.6802C1554.64 11.6802 1546.58 19.7402 1546.58 29.6802C1546.58 19.7402 1538.52 11.6802 1528.58 11.6802V25.3002C1528.58 35.2402 1536.64 43.3002 1546.58 43.3002C1556.52 43.3002 1564.58 35.2402 1564.58 25.3002V11.6802Z" fill="#285B4C"/>
<path d="M1626.59 0.820312H1573.25V54.1603H1626.59V0.820312Z" fill="#285B4C"/>
<path d="M1602.16 32.1303C1608.11 31.1603 1612.16 25.5503 1611.19 19.6003C1610.22 13.6503 1604.61 9.60028 1598.66 10.5703C1592.71 11.5403 1588.66 17.1503 1589.63 23.1003C1590.59 29.0503 1596.2 33.0903 1602.16 32.1303Z" fill="#F6EDD9"/>
<path d="M1609.95 33.6201C1604.69 33.6201 1600.43 37.8801 1600.43 43.1401V43.3001C1599.81 37.8401 1595.19 33.6201 1589.57 33.6201H1581.31C1581.31 39.6601 1586.21 44.5401 1592.23 44.5401H1609.01C1614.27 44.5401 1618.53 40.2801 1618.53 35.0201V33.6201H1609.95Z" fill="#F6EDD9"/>
<path d="M1679.94 0.820312H1626.59V54.1603H1679.93V0.820312H1679.94Z" fill="#F6EDD9"/>
<path d="M1643.97 27.6802C1649.22 27.6802 1653.47 23.4302 1653.47 18.1802C1653.47 12.9302 1649.22 8.68018 1643.97 8.68018C1638.72 8.68018 1634.47 12.9302 1634.47 18.1802C1634.47 23.4202 1638.72 27.6802 1643.97 27.6802Z" fill="#285B4C"/>
<path d="M1662.57 27.6802C1667.82 27.6802 1672.07 23.4302 1672.07 18.1802C1672.07 12.9302 1667.82 8.68018 1662.57 8.68018C1657.32 8.68018 1653.07 12.9302 1653.07 18.1802C1653.07 23.4202 1657.32 27.6802 1662.57 27.6802Z" fill="#285B4C"/>
<path d="M1643.97 46.3003C1649.22 46.3003 1653.47 42.0503 1653.47 36.8003C1653.47 31.5503 1649.22 27.3003 1643.97 27.3003C1638.72 27.3003 1634.47 31.5503 1634.47 36.8003C1634.47 42.0403 1638.72 46.3003 1643.97 46.3003Z" fill="#285B4C"/>
<path d="M1662.57 46.3003C1667.82 46.3003 1672.07 42.0503 1672.07 36.8003C1672.07 31.5503 1667.82 27.3003 1662.57 27.3003C1657.32 27.3003 1653.07 31.5503 1653.07 36.8003C1653.07 42.0403 1657.32 46.3003 1662.57 46.3003Z" fill="#285B4C"/>
<path d="M1653.27 35.6301C1657.77 35.6301 1661.41 31.9901 1661.41 27.4901C1661.41 22.9901 1657.77 19.3501 1653.27 19.3501C1648.77 19.3501 1645.13 22.9901 1645.13 27.4901C1645.13 31.9901 1648.77 35.6301 1653.27 35.6301Z" fill="#F6EDD9"/>
<path d="M1733.28 0.820312H1679.94V54.1603H1733.28V0.820312Z" fill="#285B4C"/>
<path d="M1719.37 30.3004C1719.37 37.3604 1713.65 43.0604 1706.61 43.0604C1699.57 43.0604 1693.85 37.3404 1693.85 30.3004C1693.85 23.2604 1706.61 11.9204 1706.61 11.9204C1706.61 11.9204 1719.37 23.2404 1719.37 30.3004Z" fill="#F6EDD9"/>
<path d="M1786.62 0.820312H1733.28V54.1603H1786.62V0.820312Z" fill="#F6EDD9"/>
<path d="M1776.29 27.4105C1776.21 18.4705 1768.93 11.2305 1759.95 11.2305C1750.97 11.2305 1743.71 18.4505 1743.61 27.4105C1743.61 27.4105 1743.61 27.4705 1743.61 27.4905C1743.61 27.5105 1743.61 27.5505 1743.61 27.5705C1743.69 36.5105 1750.97 43.7505 1759.95 43.7505C1768.93 43.7505 1776.19 36.5305 1776.29 27.5705C1776.29 27.5705 1776.29 27.5105 1776.29 27.4905C1776.29 27.4705 1776.29 27.4305 1776.29 27.4105ZM1759.95 43.7505C1759.95 35.2905 1753.51 28.3105 1745.25 27.4905C1753.51 26.6705 1759.95 19.6905 1759.95 11.2305C1759.95 19.6905 1766.39 26.6705 1774.65 27.4905C1766.39 28.3105 1759.95 35.2905 1759.95 43.7505Z" fill="#285B4C"/>
<path d="M1839.96 0.820312H1786.62V54.1603H1839.96V0.820312Z" fill="#285B4C"/>
<path d="M1819.07 27.4102H1807.87C1807.87 34.5502 1814.51 40.3502 1822.69 40.3502H1833.89C1833.89 33.2102 1827.25 27.4102 1819.07 27.4102Z" fill="#F6EDD9"/>
<path d="M1824.11 14.6304H1805.63C1798.49 14.6304 1792.69 20.4304 1792.69 27.5704H1811.17C1818.31 27.5704 1824.11 21.7704 1824.11 14.6304Z" fill="#F6EDD9"/>
<path d="M1893.3 0.820312H1839.96V54.1603H1893.3V0.820312Z" fill="#F6EDD9"/>
<path d="M1884.63 11.6802C1874.69 11.6802 1866.63 19.7402 1866.63 29.6802C1866.63 19.7402 1858.57 11.6802 1848.63 11.6802V25.3002C1848.63 35.2402 1856.69 43.3002 1866.63 43.3002C1876.57 43.3002 1884.63 35.2402 1884.63 25.3002V11.6802Z" fill="#285B4C"/>
<path d="M1946.64 0.820312H1893.3V54.1603H1946.64V0.820312Z" fill="#285B4C"/>
<path d="M1922.21 32.1303C1928.16 31.1603 1932.21 25.5503 1931.24 19.6003C1930.27 13.6503 1924.66 9.60028 1918.71 10.5703C1912.76 11.5403 1908.71 17.1503 1909.68 23.1003C1910.64 29.0503 1916.25 33.0903 1922.21 32.1303Z" fill="#F6EDD9"/>
<path d="M1930 33.6201C1924.74 33.6201 1920.48 37.8801 1920.48 43.1401V43.3001C1919.86 37.8401 1915.24 33.6201 1909.62 33.6201H1901.36C1901.36 39.6601 1906.26 44.5401 1912.28 44.5401H1929.06C1934.32 44.5401 1938.58 40.2801 1938.58 35.0201V33.6201H1930Z" fill="#F6EDD9"/>
</g>
<defs>
<clipPath id="clip0_1508_3253">
<rect width="1920" height="53.34" fill="white" transform="translate(0 0.820312)"/>
</clipPath>
</defs>
</svg>
